<svg xmlns="http://www.w3.org/2000/svg" id="canvas" viewBox="211.271 285.734 1076.564 251.877"><path d="M 242.58,301.04 C 241.80 302.78, 241.63 305.36, 241.02 310.07 C 240.40 314.78, 240.23 318.02, 239.50 324.58 C 238.78 331.13, 238.29 335.43, 237.39 342.84 C 236.50 350.25, 236.04 354.43, 235.03 361.64 C 234.03 368.86, 233.33 372.33, 232.36 378.93 C 231.39 385.53, 230.92 388.93, 230.19 394.65 C 229.46 400.37, 229.23 403.07, 228.71 407.53 C 228.20 411.99, 227.81 413.95, 227.60 416.95 C 227.40 419.95, 227.50 420.95, 227.70 422.52 C 227.89 424.10, 228.11 424.32, 228.58 424.82 C 229.04 425.31, 229.58 425.13, 230.02 424.98 C 230.46 424.83, 231.11 424.29, 230.77 424.08 C 230.44 423.87, 228.70 423.74, 228.33 423.91 C 227.97 424.07, 228.53 424.72, 228.95 424.91 C 229.36 425.09, 229.93 425.29, 230.41 424.84 C 230.89 424.39, 231.04 424.18, 231.34 422.65 C 231.65 421.12, 231.81 420.16, 231.93 417.18 C 232.05 414.21, 231.77 412.23, 231.95 407.78 C 232.13 403.33, 232.28 400.65, 232.83 394.94 C 233.39 389.24, 233.82 385.86, 234.72 379.27 C 235.62 372.67, 236.31 369.19, 237.34 361.97 C 238.38 354.75, 238.91 350.57, 239.90 343.16 C 240.90 335.75, 241.47 331.45, 242.31 324.91 C 243.15 318.37, 243.57 315.15, 244.10 310.44 C 244.62 305.73, 245.23 303.23, 244.93 301.35 C 244.63 299.47, 243.36 299.29, 242.58 301.04" style="stroke:#ac1159; fill:#ac1159;"/><path d="M 245.79,303.70 C 246.61 303.84, 247.05 303.49, 248.17 302.97 C 249.29 302.45, 249.88 302.03, 251.38 301.10 C 252.87 300.16, 253.66 299.34, 255.65 298.30 C 257.63 297.26, 258.75 296.71, 261.29 295.92 C 263.83 295.12, 265.38 294.74, 268.34 294.34 C 271.31 293.95, 273.01 293.82, 276.11 293.94 C 279.21 294.06, 280.84 294.22, 283.85 294.95 C 286.87 295.68, 288.53 296.29, 291.19 297.59 C 293.86 298.90, 295.16 299.75, 297.19 301.46 C 299.22 303.17, 300.10 304.14, 301.35 306.13 C 302.60 308.13, 303.12 309.12, 303.43 311.42 C 303.73 313.72, 303.67 314.94, 302.88 317.64 C 302.10 320.34, 301.35 322.00, 299.51 324.94 C 297.68 327.87, 296.41 329.47, 293.70 332.33 C 291.00 335.18, 289.21 336.68, 285.99 339.21 C 282.77 341.74, 280.84 342.99, 277.60 344.98 C 274.37 346.98, 272.65 347.73, 269.80 349.19 C 266.96 350.66, 265.49 351.03, 263.39 352.31 C 261.28 353.59, 260.31 354.27, 259.27 355.61 C 258.23 356.95, 258.06 357.71, 258.20 359.03 C 258.33 360.34, 258.70 361.12, 259.94 362.20 C 261.19 363.29, 262.21 363.79, 264.41 364.46 C 266.62 365.13, 268.09 365.00, 270.98 365.56 C 273.86 366.11, 275.47 366.21, 278.84 367.22 C 282.21 368.23, 284.22 368.87, 287.83 370.61 C 291.44 372.35, 293.50 373.47, 296.88 375.91 C 300.25 378.36, 301.90 379.86, 304.70 382.84 C 307.50 385.83, 308.87 387.47, 310.88 390.84 C 312.89 394.21, 313.71 396.06, 314.76 399.68 C 315.82 403.31, 316.10 405.29, 316.15 408.97 C 316.19 412.65, 316.14 414.53, 315.00 418.07 C 313.86 421.61, 312.88 423.27, 310.47 426.68 C 308.05 430.10, 306.41 431.91, 302.92 435.17 C 299.42 438.42, 297.42 440.15, 293.01 442.95 C 288.61 445.76, 285.97 447.03, 280.88 449.18 C 275.80 451.33, 272.87 452.30, 267.58 453.69 C 262.29 455.07, 259.53 455.65, 254.45 456.10 C 249.38 456.55, 246.78 456.47, 242.21 455.92 C 237.64 455.38, 235.23 454.69, 231.60 453.39 C 227.98 452.09, 226.52 450.82, 224.08 449.43 C 221.64 448.04, 220.81 447.42, 219.42 446.44 C 218.03 445.47, 217.82 445.18, 217.12 444.53 C 216.43 443.88, 216.46 443.37, 215.95 443.19 C 215.43 443.00, 214.82 443.04, 214.53 443.62 C 214.25 444.20, 214.12 444.89, 214.54 446.09 C 214.96 447.29, 215.20 448.14, 216.65 449.64 C 218.10 451.13, 219.05 452.08, 221.81 453.55 C 224.57 455.03, 226.44 455.89, 230.45 457.01 C 234.47 458.14, 237.02 458.77, 241.88 459.19 C 246.73 459.61, 249.45 459.65, 254.74 459.12 C 260.03 458.59, 262.87 457.98, 268.33 456.55 C 273.79 455.11, 276.77 454.13, 282.04 451.94 C 287.31 449.76, 290.05 448.48, 294.68 445.63 C 299.32 442.77, 301.46 441.03, 305.21 437.67 C 308.95 434.31, 310.74 432.49, 313.42 428.81 C 316.11 425.13, 317.31 423.24, 318.64 419.26 C 319.97 415.29, 320.10 413.07, 320.07 408.93 C 320.04 404.80, 319.68 402.60, 318.49 398.59 C 317.31 394.58, 316.35 392.55, 314.15 388.88 C 311.95 385.21, 310.47 383.47, 307.49 380.24 C 304.50 377.01, 302.78 375.42, 299.23 372.74 C 295.69 370.05, 293.52 368.84, 289.77 366.81 C 286.03 364.78, 283.97 364.07, 280.53 362.59 C 277.09 361.11, 275.51 360.37, 272.56 359.42 C 269.62 358.46, 268.03 358.09, 265.81 357.83 C 263.59 357.56, 262.57 357.87, 261.47 358.09 C 260.36 358.31, 260.21 358.79, 260.27 358.91 C 260.34 359.02, 260.67 359.10, 261.79 358.66 C 262.91 358.22, 263.81 357.77, 265.87 356.71 C 267.93 355.65, 269.28 354.98, 272.08 353.35 C 274.89 351.71, 276.60 350.73, 279.89 348.55 C 283.18 346.37, 285.15 345.08, 288.52 342.43 C 291.89 339.78, 293.78 338.28, 296.75 335.28 C 299.72 332.29, 301.18 330.69, 303.37 327.45 C 305.55 324.21, 306.64 322.42, 307.68 319.09 C 308.71 315.75, 308.93 313.91, 308.55 310.77 C 308.17 307.64, 307.39 306.08, 305.78 303.42 C 304.18 300.76, 303.01 299.54, 300.53 297.47 C 298.05 295.40, 296.46 294.53, 293.36 293.07 C 290.26 291.61, 288.42 290.99, 285.03 290.15 C 281.64 289.31, 279.83 289.12, 276.39 288.88 C 272.95 288.64, 271.15 288.72, 267.82 288.94 C 264.48 289.16, 262.74 289.30, 259.71 289.98 C 256.68 290.67, 255.13 291.18, 252.68 292.36 C 250.22 293.54, 249.05 294.47, 247.44 295.88 C 245.83 297.29, 245.31 298.15, 244.63 299.42 C 243.95 300.69, 243.81 301.39, 244.05 302.24 C 244.28 303.10, 244.96 303.55, 245.79 303.70" style="stroke:#ac1159; fill:#ac1159;"/><path d="M 364.10,310.81 C 363.35 311.33, 362.92 311.85, 362.39 313.69 C 361.86 315.52, 361.65 316.71, 361.45 319.98 C 361.25 323.25, 361.52 325.38, 361.41 330.03 C 361.29 334.68, 361.14 337.63, 360.87 343.24 C 360.60 348.85, 360.41 352.01, 360.07 358.09 C 359.73 364.17, 359.51 367.54, 359.17 373.64 C 358.83 379.75, 358.58 382.95, 358.39 388.61 C 358.19 394.26, 358.08 397.02, 358.20 401.94 C 358.33 406.86, 358.59 409.17, 358.99 413.20 C 359.40 417.23, 359.43 419.05, 360.25 422.08 C 361.06 425.11, 361.82 426.45, 363.06 428.34 C 364.31 430.23, 365.24 430.76, 366.48 431.53 C 367.72 432.30, 368.55 432.33, 369.27 432.18 C 369.99 432.04, 370.18 431.44, 370.08 430.81 C 369.97 430.18, 369.39 429.99, 368.76 429.05 C 368.13 428.10, 367.76 427.73, 366.93 426.08 C 366.11 424.42, 365.51 423.46, 364.65 420.79 C 363.78 418.11, 363.29 416.50, 362.63 412.70 C 361.96 408.91, 361.61 406.61, 361.33 401.81 C 361.06 397.01, 361.12 394.29, 361.24 388.68 C 361.36 383.08, 361.59 379.88, 361.94 373.80 C 362.28 367.72, 362.51 364.34, 362.96 358.28 C 363.41 352.21, 363.65 349.06, 364.18 343.48 C 364.70 337.89, 365.02 334.95, 365.59 330.34 C 366.16 325.73, 366.73 323.64, 367.03 320.40 C 367.33 317.16, 367.27 316.01, 367.10 314.14 C 366.93 312.27, 366.76 311.74, 366.16 311.08 C 365.56 310.41, 364.86 310.29, 364.10 310.81" style="stroke:#ac1159; fill:#ac1159;"/><path d="M 409.24,369.47 C 408.46 370.23, 408.07 371.23, 407.63 373.42 C 407.19 375.62, 407.09 377.13, 407.02 380.45 C 406.96 383.76, 407.18 386.09, 407.29 390.01 C 407.41 393.94, 407.39 396.12, 407.61 400.07 C 407.83 404.03, 407.97 406.14, 408.39 409.79 C 408.82 413.44, 408.84 415.29, 409.73 418.33 C 410.63 421.37, 411.27 422.86, 412.85 424.97 C 414.44 427.08, 415.45 427.91, 417.67 428.88 C 419.90 429.86, 421.30 430.17, 423.98 429.85 C 426.67 429.52, 428.26 429.02, 431.09 427.24 C 433.93 425.46, 435.27 423.92, 438.16 420.95 C 441.04 417.98, 442.62 416.07, 445.53 412.38 C 448.44 408.68, 449.97 406.43, 452.72 402.46 C 455.46 398.49, 456.85 396.14, 459.24 392.53 C 461.64 388.92, 462.96 387.18, 464.70 384.42 C 466.45 381.66, 467.30 380.34, 467.97 378.74 C 468.65 377.15, 468.37 376.38, 468.07 376.44 C 467.78 376.49, 467.00 377.03, 466.51 379.00 C 466.02 380.98, 465.81 382.73, 465.61 386.33 C 465.41 389.92, 465.58 392.50, 465.49 396.97 C 465.41 401.44, 465.29 404.26, 465.19 408.68 C 465.10 413.10, 464.94 415.65, 465.02 419.09 C 465.10 422.52, 465.22 423.76, 465.59 425.85 C 465.96 427.94, 466.31 428.82, 466.87 429.54 C 467.42 430.26, 467.91 430.21, 468.38 429.45 C 468.86 428.69, 468.99 427.83, 469.25 425.75 C 469.50 423.67, 469.61 422.45, 469.65 419.06 C 469.68 415.66, 469.35 413.14, 469.44 408.77 C 469.52 404.39, 469.73 401.61, 470.08 397.19 C 470.42 392.78, 470.90 390.33, 471.18 386.70 C 471.45 383.06, 471.93 381.31, 471.45 379.01 C 470.97 376.72, 470.07 375.76, 468.76 375.23 C 467.45 374.71, 466.51 375.04, 464.92 376.39 C 463.32 377.73, 462.59 379.13, 460.80 381.95 C 459.01 384.76, 458.21 386.78, 455.98 390.46 C 453.75 394.14, 452.37 396.46, 449.67 400.35 C 446.97 404.24, 445.41 406.42, 442.48 409.88 C 439.54 413.35, 437.85 415.12, 435.00 417.67 C 432.15 420.22, 430.60 421.17, 428.23 422.62 C 425.85 424.07, 424.89 424.45, 423.11 424.91 C 421.34 425.37, 420.64 425.43, 419.35 424.91 C 418.07 424.40, 417.64 423.95, 416.68 422.35 C 415.73 420.75, 415.35 419.54, 414.59 416.91 C 413.83 414.28, 413.39 412.61, 412.89 409.20 C 412.39 405.79, 412.22 403.71, 412.10 399.87 C 411.97 396.04, 412.12 393.88, 412.26 390.03 C 412.40 386.17, 412.70 383.86, 412.79 380.59 C 412.88 377.31, 412.98 375.84, 412.72 373.64 C 412.47 371.44, 412.21 370.41, 411.51 369.58 C 410.82 368.74, 410.02 368.70, 409.24 369.47" style="stroke:#ac1159; fill:#ac1159;"/><path d="M 540.05,366.32 C 539.53 365.59, 538.92 365.34, 537.50 365.00 C 536.08 364.65, 535.11 364.43, 532.94 364.58 C 530.77 364.73, 529.39 364.86, 526.64 365.73 C 523.89 366.60, 522.09 367.42, 519.18 368.93 C 516.27 370.45, 514.67 371.49, 512.09 373.31 C 509.50 375.14, 508.11 376.00, 506.25 378.07 C 504.38 380.14, 503.46 381.33, 502.75 383.65 C 502.04 385.97, 502.07 387.33, 502.68 389.66 C 503.29 391.99, 503.98 393.19, 505.82 395.29 C 507.66 397.39, 509.10 398.28, 511.88 400.17 C 514.66 402.06, 516.63 402.90, 519.73 404.74 C 522.84 406.58, 524.65 407.49, 527.41 409.38 C 530.17 411.27, 531.49 412.35, 533.53 414.18 C 535.58 416.00, 536.57 416.95, 537.62 418.52 C 538.68 420.08, 538.89 420.71, 538.81 422.01 C 538.73 423.31, 538.44 423.89, 537.20 425.01 C 535.96 426.12, 534.86 426.48, 532.61 427.59 C 530.36 428.69, 529.04 429.54, 525.94 430.54 C 522.84 431.54, 520.78 431.99, 517.12 432.60 C 513.46 433.22, 511.16 433.49, 507.65 433.61 C 504.13 433.74, 502.39 433.45, 499.54 433.23 C 496.69 433.01, 495.26 432.75, 493.39 432.52 C 491.51 432.30, 491.10 432.21, 490.15 432.10 C 489.21 431.99, 489.02 431.99, 488.67 431.97 C 488.32 431.95, 488.64 432.02, 488.40 432.01 C 488.16 431.99, 487.76 431.63, 487.48 431.89 C 487.21 432.14, 486.80 432.56, 487.04 433.27 C 487.27 433.99, 487.59 434.70, 488.66 435.48 C 489.74 436.26, 490.32 436.58, 492.42 437.18 C 494.51 437.78, 496.05 438.25, 499.14 438.48 C 502.23 438.72, 504.14 438.58, 507.88 438.35 C 511.62 438.12, 513.95 437.88, 517.85 437.32 C 521.75 436.76, 523.88 436.45, 527.38 435.56 C 530.88 434.67, 532.64 434.35, 535.36 432.89 C 538.07 431.42, 539.41 430.35, 540.95 428.23 C 542.50 426.11, 542.90 424.71, 543.07 422.30 C 543.24 419.88, 542.99 418.55, 541.79 416.15 C 540.59 413.75, 539.40 412.48, 537.09 410.31 C 534.77 408.13, 533.13 407.27, 530.20 405.28 C 527.27 403.30, 525.46 402.33, 522.44 400.38 C 519.42 398.42, 517.64 397.31, 515.11 395.51 C 512.59 393.71, 511.46 392.84, 509.83 391.38 C 508.20 389.92, 507.53 389.46, 506.95 388.23 C 506.37 387.00, 506.32 386.47, 506.94 385.21 C 507.56 383.95, 508.35 383.35, 510.03 381.94 C 511.72 380.53, 512.99 379.67, 515.35 378.17 C 517.72 376.66, 519.18 375.60, 521.84 374.41 C 524.50 373.23, 526.24 372.97, 528.65 372.25 C 531.05 371.53, 532.06 371.26, 533.87 370.81 C 535.67 370.37, 536.43 370.46, 537.67 370.03 C 538.91 369.59, 539.61 369.37, 540.08 368.63 C 540.56 367.88, 540.56 367.04, 540.05 366.32" style="stroke:#ac1159; fill:#ac1159;"/><path d="M 589.09,310.10 C 588.47 310.90, 588.26 311.66, 588.12 313.92 C 587.98 316.19, 588.24 317.62, 588.38 321.43 C 588.52 325.25, 588.94 327.81, 588.82 333.02 C 588.70 338.23, 588.46 341.37, 587.77 347.48 C 587.08 353.59, 586.45 357.03, 585.37 363.58 C 584.28 370.13, 583.58 373.84, 582.34 380.24 C 581.10 386.64, 580.32 389.91, 579.17 395.58 C 578.03 401.25, 577.49 404.08, 576.62 408.59 C 575.75 413.10, 574.98 415.13, 574.81 418.12 C 574.65 421.11, 574.94 422.25, 575.78 423.56 C 576.62 424.87, 577.46 425.17, 579.00 424.67 C 580.54 424.17, 581.86 423.49, 583.47 421.07 C 585.08 418.66, 585.39 416.46, 587.05 412.59 C 588.71 408.72, 589.61 406.18, 591.77 401.72 C 593.92 397.26, 595.25 394.61, 597.83 390.30 C 600.40 385.98, 601.94 383.69, 604.64 380.15 C 607.35 376.61, 608.67 375.01, 611.33 372.59 C 613.99 370.16, 615.58 369.36, 617.94 368.00 C 620.29 366.65, 621.30 366.18, 623.10 365.82 C 624.91 365.47, 625.65 365.54, 626.95 366.25 C 628.26 366.96, 628.68 367.60, 629.63 369.38 C 630.58 371.16, 631.03 372.26, 631.71 375.17 C 632.39 378.09, 632.75 380.00, 633.03 383.95 C 633.31 387.90, 633.28 390.37, 633.12 394.91 C 632.95 399.45, 632.71 402.16, 632.19 406.63 C 631.68 411.10, 631.18 413.35, 630.54 417.25 C 629.89 421.14, 629.26 423.08, 628.96 426.11 C 628.65 429.15, 628.83 430.49, 629.01 432.42 C 629.20 434.35, 629.42 435.06, 629.89 435.75 C 630.37 436.43, 630.83 436.45, 631.39 435.84 C 631.95 435.23, 632.20 434.54, 632.68 432.70 C 633.16 430.86, 633.39 429.64, 633.77 426.66 C 634.15 423.68, 634.11 421.73, 634.56 417.81 C 635.00 413.89, 635.48 411.60, 635.99 407.06 C 636.49 402.52, 636.78 399.77, 637.08 395.11 C 637.37 390.45, 637.52 387.97, 637.47 383.77 C 637.42 379.56, 637.50 377.49, 636.81 374.07 C 636.12 370.65, 635.62 369.03, 634.03 366.68 C 632.44 364.33, 631.19 363.35, 628.87 362.30 C 626.55 361.25, 625.08 361.08, 622.42 361.42 C 619.76 361.77, 618.34 362.35, 615.58 364.02 C 612.82 365.69, 611.37 366.97, 608.61 369.77 C 605.86 372.57, 604.57 374.29, 601.81 378.03 C 599.06 381.77, 597.53 384.10, 594.83 388.48 C 592.13 392.86, 590.77 395.55, 588.33 399.93 C 585.88 404.31, 584.67 406.76, 582.62 410.40 C 580.56 414.03, 579.13 415.61, 578.05 418.10 C 576.97 420.59, 577.22 421.84, 577.22 422.84 C 577.22 423.84, 577.65 423.97, 578.05 423.11 C 578.45 422.24, 578.88 421.33, 579.24 418.53 C 579.61 415.73, 579.34 413.59, 579.87 409.10 C 580.40 404.61, 580.89 401.77, 581.90 396.09 C 582.90 390.42, 583.67 387.14, 584.89 380.73 C 586.10 374.31, 586.81 370.60, 587.97 364.03 C 589.13 357.45, 589.80 354.02, 590.71 347.86 C 591.61 341.70, 592.00 338.52, 592.49 333.23 C 592.98 327.94, 593.08 325.32, 593.17 321.40 C 593.26 317.49, 593.32 315.97, 592.93 313.66 C 592.54 311.36, 591.98 310.60, 591.21 309.89 C 590.45 309.18, 589.71 309.29, 589.09 310.10" style="stroke:#ac1159; fill:#ac1159;"/><path d="M 683.71,343.83 C 683.22 345.10, 683.34 346.71, 683.58 349.80 C 683.82 352.90, 684.48 354.76, 684.92 359.30 C 685.36 363.84, 685.57 366.93, 685.76 372.51 C 685.95 378.10, 685.89 381.14, 685.86 387.23 C 685.84 393.32, 685.74 396.77, 685.63 402.97 C 685.52 409.16, 685.50 412.49, 685.33 418.21 C 685.15 423.92, 684.99 426.74, 684.74 431.56 C 684.50 436.37, 684.15 438.84, 684.09 442.29 C 684.02 445.74, 684.14 446.91, 684.43 448.82 C 684.72 450.73, 685.05 451.25, 685.52 451.85 C 686.00 452.44, 686.37 452.40, 686.79 451.79 C 687.21 451.19, 687.37 450.70, 687.64 448.81 C 687.91 446.92, 688.09 445.80, 688.16 442.36 C 688.22 438.93, 687.97 436.46, 687.97 431.64 C 687.98 426.82, 688.09 423.99, 688.17 418.27 C 688.25 412.55, 688.26 409.22, 688.37 403.02 C 688.49 396.82, 688.61 393.38, 688.75 387.27 C 688.90 381.16, 689.07 378.12, 689.10 372.47 C 689.13 366.82, 689.11 363.67, 688.91 359.02 C 688.71 354.37, 688.67 352.32, 688.09 349.21 C 687.51 346.09, 686.90 344.52, 686.02 343.44 C 685.14 342.37, 684.19 342.55, 683.71 343.83" style="stroke:#ac1159; fill:#ac1159;"/><path d="M 667.24,339.27 C 668.23 339.14, 668.71 338.35, 670.33 337.28 C 671.95 336.20, 672.75 335.42, 675.36 333.90 C 677.97 332.38, 679.65 330.96, 683.38 329.68 C 687.11 328.40, 689.50 327.83, 694.00 327.51 C 698.51 327.18, 701.10 327.29, 705.90 328.06 C 710.70 328.83, 713.39 329.51, 718.00 331.35 C 722.61 333.19, 724.93 334.35, 728.94 337.25 C 732.95 340.15, 734.83 341.92, 738.04 345.84 C 741.24 349.76, 742.72 352.14, 744.96 356.85 C 747.21 361.56, 748.13 364.21, 749.25 369.40 C 750.38 374.59, 750.70 377.42, 750.59 382.80 C 750.48 388.18, 750.11 391.09, 748.71 396.29 C 747.30 401.48, 746.19 404.10, 743.56 408.76 C 740.92 413.43, 739.13 415.70, 735.52 419.60 C 731.90 423.49, 729.66 425.35, 725.48 428.24 C 721.30 431.13, 718.85 432.30, 714.63 434.06 C 710.41 435.83, 708.23 436.39, 704.39 437.06 C 700.54 437.73, 698.51 437.77, 695.43 437.43 C 692.34 437.09, 691.06 436.12, 688.97 435.36 C 686.88 434.60, 686.24 434.34, 684.98 433.64 C 683.71 432.93, 683.40 432.00, 682.65 431.84 C 681.89 431.69, 681.20 431.95, 681.20 432.86 C 681.19 433.77, 681.42 435.01, 682.61 436.41 C 683.81 437.81, 684.68 438.78, 687.18 439.85 C 689.68 440.92, 691.51 441.61, 695.10 441.77 C 698.68 441.93, 700.94 441.60, 705.11 440.66 C 709.28 439.72, 711.51 439.06, 715.94 437.08 C 720.36 435.09, 722.89 433.84, 727.24 430.75 C 731.59 427.65, 733.91 425.70, 737.67 421.59 C 741.44 417.47, 743.30 415.09, 746.07 410.18 C 748.83 405.27, 750.00 402.50, 751.48 397.04 C 752.97 391.58, 753.36 388.51, 753.49 382.86 C 753.61 377.21, 753.29 374.24, 752.13 368.78 C 750.96 363.33, 750.01 360.54, 747.67 355.57 C 745.32 350.60, 743.77 348.08, 740.39 343.92 C 737.01 339.76, 735.00 337.86, 730.76 334.75 C 726.52 331.64, 724.06 330.39, 719.20 328.39 C 714.34 326.39, 711.55 325.66, 706.47 324.73 C 701.40 323.80, 698.70 323.63, 693.82 323.74 C 688.95 323.86, 686.35 324.27, 682.10 325.33 C 677.86 326.38, 675.62 327.34, 672.59 329.01 C 669.56 330.68, 668.40 331.88, 666.96 333.66 C 665.52 335.44, 665.35 336.78, 665.41 337.90 C 665.46 339.02, 666.26 339.39, 667.24 339.27" style="stroke:#ac1159; fill:#ac1159;"/><path d="M 779.82,421.98 C 780.50 422.71, 781.46 423.03, 783.23 423.28 C 785.01 423.52, 786.15 423.67, 788.70 423.20 C 791.24 422.73, 792.97 422.14, 795.95 420.92 C 798.94 419.71, 800.57 418.79, 803.62 417.12 C 806.66 415.46, 808.23 414.47, 811.19 412.60 C 814.15 410.73, 815.82 409.81, 818.42 407.77 C 821.02 405.73, 822.42 404.63, 824.18 402.40 C 825.95 400.16, 826.48 398.91, 827.23 396.60 C 827.99 394.29, 828.22 393.09, 827.94 390.85 C 827.66 388.61, 827.25 387.25, 825.83 385.39 C 824.41 383.53, 823.16 382.64, 820.83 381.55 C 818.50 380.45, 817.14 380.05, 814.18 379.92 C 811.23 379.80, 809.44 380.07, 806.04 380.93 C 802.64 381.78, 800.80 382.45, 797.17 384.18 C 793.54 385.92, 791.49 387.03, 787.89 389.60 C 784.28 392.17, 782.27 393.68, 779.14 397.05 C 776.01 400.42, 774.42 402.47, 772.23 406.44 C 770.03 410.42, 769.11 412.71, 768.17 416.92 C 767.22 421.13, 766.94 423.53, 767.50 427.51 C 768.06 431.49, 768.81 433.53, 770.95 436.81 C 773.08 440.10, 774.72 441.63, 778.17 443.91 C 781.61 446.19, 783.76 447.15, 788.18 448.23 C 792.61 449.31, 795.26 449.44, 800.28 449.31 C 805.30 449.17, 808.06 448.74, 813.28 447.55 C 818.51 446.36, 821.26 445.46, 826.40 443.37 C 831.54 441.28, 834.18 439.93, 838.98 437.10 C 843.79 434.27, 846.11 432.68, 850.41 429.22 C 854.71 425.76, 856.87 423.78, 860.49 419.80 C 864.11 415.82, 865.67 413.55, 868.51 409.33 C 871.35 405.11, 872.46 402.96, 874.70 398.69 C 876.94 394.41, 877.98 392.23, 879.70 387.98 C 881.43 383.72, 882.15 381.48, 883.34 377.43 C 884.54 373.39, 884.91 371.51, 885.69 367.76 C 886.47 364.00, 886.89 362.12, 887.24 358.67 C 887.59 355.21, 887.66 353.43, 887.43 350.47 C 887.20 347.51, 886.81 346.22, 886.10 343.86 C 885.39 341.51, 885.04 340.36, 883.87 338.69 C 882.69 337.02, 881.89 336.31, 880.22 335.52 C 878.55 334.73, 877.51 334.50, 875.52 334.74 C 873.52 334.98, 872.31 335.27, 870.24 336.73 C 868.18 338.19, 867.00 339.34, 865.20 342.03 C 863.40 344.72, 862.73 346.51, 861.23 350.17 C 859.72 353.83, 858.96 355.91, 857.67 360.32 C 856.38 364.72, 855.78 367.21, 854.78 372.20 C 853.78 377.18, 853.35 379.95, 852.68 385.24 C 852.00 390.53, 851.64 393.22, 851.41 398.63 C 851.17 404.03, 851.20 407.11, 851.50 412.26 C 851.79 417.42, 852.11 419.91, 852.89 424.39 C 853.67 428.87, 854.09 430.94, 855.38 434.66 C 856.67 438.38, 857.40 440.26, 859.33 442.98 C 861.26 445.71, 862.49 446.83, 865.05 448.28 C 867.61 449.73, 869.18 450.07, 872.13 450.23 C 875.09 450.38, 876.71 450.16, 879.85 449.04 C 882.99 447.93, 884.59 446.86, 887.82 444.66 C 891.05 442.46, 892.85 440.93, 895.99 438.04 C 899.13 435.16, 900.68 433.45, 903.50 430.24 C 906.33 427.02, 907.62 425.15, 910.14 421.97 C 912.65 418.80, 913.98 417.07, 916.06 414.35 C 918.14 411.63, 919.18 410.41, 920.52 408.38 C 921.86 406.36, 922.24 405.46, 922.77 404.23 C 923.30 403.01, 923.29 402.51, 923.15 402.25 C 923.01 401.98, 922.51 402.05, 922.07 402.91 C 921.64 403.78, 921.20 404.55, 920.99 406.55 C 920.79 408.56, 920.83 410.08, 921.04 412.92 C 921.26 415.76, 921.75 417.55, 922.07 420.74 C 922.39 423.94, 922.37 425.80, 922.64 428.89 C 922.91 431.98, 923.03 433.83, 923.43 436.20 C 923.83 438.58, 924.10 439.45, 924.63 440.76 C 925.16 442.06, 925.64 442.24, 926.08 442.71 C 926.53 443.18, 926.56 443.05, 926.84 443.12 C 927.12 443.19, 927.23 443.20, 927.49 443.05 C 927.74 442.89, 927.86 442.92, 928.12 442.36 C 928.37 441.79, 928.60 441.56, 928.78 440.22 C 928.97 438.87, 929.12 438.00, 929.05 435.65 C 928.98 433.29, 928.65 431.48, 928.43 428.43 C 928.22 425.38, 928.03 423.57, 927.98 420.40 C 927.93 417.23, 928.25 415.41, 928.18 412.56 C 928.11 409.71, 928.08 408.27, 927.61 406.13 C 927.15 404.00, 926.82 403.07, 925.84 401.90 C 924.86 400.74, 923.97 400.33, 922.73 400.31 C 921.49 400.28, 920.91 400.73, 919.65 401.77 C 918.39 402.81, 917.90 403.53, 916.43 405.51 C 914.96 407.48, 914.22 408.84, 912.30 411.63 C 910.39 414.42, 909.23 416.28, 906.86 419.47 C 904.50 422.65, 903.23 424.48, 900.48 427.56 C 897.74 430.64, 896.20 432.23, 893.15 434.86 C 890.10 437.49, 888.26 438.87, 885.26 440.73 C 882.25 442.60, 880.73 443.27, 878.13 444.19 C 875.53 445.10, 874.44 445.31, 872.27 445.31 C 870.11 445.32, 869.15 445.23, 867.30 444.23 C 865.44 443.23, 864.64 442.50, 862.99 440.31 C 861.33 438.12, 860.36 436.61, 859.02 433.30 C 857.68 429.99, 857.15 428.00, 856.28 423.75 C 855.42 419.50, 855.04 417.06, 854.69 412.06 C 854.34 407.06, 854.29 404.04, 854.52 398.76 C 854.75 393.48, 855.11 390.83, 855.84 385.66 C 856.57 380.50, 857.05 377.75, 858.17 372.92 C 859.28 368.10, 859.94 365.67, 861.41 361.52 C 862.88 357.38, 863.78 355.40, 865.51 352.19 C 867.24 348.99, 868.39 347.69, 870.07 345.50 C 871.74 343.31, 872.59 342.48, 873.88 341.23 C 875.17 339.98, 875.61 339.66, 876.52 339.25 C 877.42 338.85, 877.72 338.86, 878.40 339.22 C 879.09 339.59, 879.40 339.88, 879.96 341.07 C 880.53 342.26, 880.79 343.19, 881.24 345.17 C 881.68 347.14, 881.90 348.32, 882.20 350.96 C 882.49 353.60, 882.81 355.15, 882.71 358.36 C 882.62 361.57, 882.30 363.40, 881.71 367.02 C 881.12 370.63, 880.81 372.49, 879.77 376.43 C 878.72 380.36, 878.08 382.55, 876.49 386.71 C 874.90 390.86, 873.93 393.02, 871.81 397.20 C 869.70 401.38, 868.64 403.49, 865.92 407.61 C 863.21 411.72, 861.73 413.92, 858.26 417.78 C 854.79 421.65, 852.71 423.57, 848.56 426.93 C 844.40 430.28, 842.15 431.83, 837.49 434.55 C 832.83 437.28, 830.24 438.57, 825.26 440.55 C 820.29 442.52, 817.60 443.36, 812.60 444.42 C 807.59 445.48, 804.92 445.82, 800.22 445.85 C 795.52 445.89, 793.07 445.64, 789.10 444.60 C 785.13 443.55, 783.32 442.62, 780.37 440.62 C 777.41 438.62, 776.12 437.34, 774.33 434.61 C 772.54 431.88, 771.91 430.32, 771.42 426.95 C 770.94 423.58, 771.09 421.49, 771.91 417.75 C 772.72 414.01, 773.50 411.87, 775.50 408.25 C 777.50 404.63, 778.97 402.72, 781.91 399.66 C 784.85 396.60, 786.77 395.20, 790.19 392.94 C 793.61 390.68, 795.62 389.72, 799.01 388.35 C 802.41 386.98, 804.16 386.60, 807.14 386.09 C 810.13 385.58, 811.62 385.70, 813.93 385.80 C 816.24 385.91, 817.09 386.04, 818.69 386.61 C 820.29 387.18, 821.00 387.68, 821.93 388.64 C 822.87 389.61, 823.20 390.17, 823.37 391.44 C 823.55 392.71, 823.45 393.46, 822.80 394.97 C 822.14 396.49, 821.64 397.29, 820.12 399.03 C 818.59 400.78, 817.50 401.83, 815.18 403.70 C 812.86 405.56, 811.32 406.63, 808.53 408.37 C 805.74 410.10, 804.16 411.03, 801.22 412.38 C 798.28 413.73, 796.62 414.22, 793.83 415.13 C 791.03 416.03, 789.44 416.27, 787.23 416.91 C 785.03 417.54, 784.27 417.76, 782.78 418.30 C 781.30 418.84, 780.42 418.86, 779.83 419.59 C 779.24 420.33, 779.14 421.24, 779.82 421.98" style="stroke:#ac1159; fill:#ac1159;"/><path d="M 927.40,349.50 C 928.25 349.78, 929.03 349.74, 929.38 349.30 C 929.74 348.86, 929.71 348.08, 929.20 347.31 C 928.68 346.54, 927.71 345.74, 926.82 345.45 C 925.93 345.16, 925.10 345.36, 924.76 345.85 C 924.43 346.34, 924.62 347.18, 925.15 347.91 C 925.68 348.64, 926.55 349.22, 927.40 349.50" style="stroke:#ac1159; fill:#ac1159;"/><path d="M 974.07,393.61 C 973.50 394.52, 973.45 395.55, 973.48 397.70 C 973.51 399.86, 973.70 401.33, 974.23 404.38 C 974.75 407.42, 975.45 409.39, 976.13 412.94 C 976.80 416.49, 977.08 418.53, 977.60 422.13 C 978.12 425.73, 978.25 427.61, 978.73 430.94 C 979.21 434.26, 979.16 435.98, 979.99 438.75 C 980.82 441.53, 981.45 442.99, 982.89 444.80 C 984.32 446.61, 985.25 447.29, 987.18 447.81 C 989.11 448.32, 990.30 448.31, 992.53 447.37 C 994.77 446.42, 996.12 445.58, 998.36 443.07 C 1000.60 440.55, 1001.44 438.53, 1003.73 434.79 C 1006.03 431.06, 1007.23 428.68, 1009.83 424.38 C 1012.43 420.09, 1014.10 417.65, 1016.73 413.32 C 1019.36 408.98, 1020.62 406.68, 1022.97 402.70 C 1025.32 398.72, 1026.57 396.66, 1028.47 393.43 C 1030.38 390.21, 1031.44 388.90, 1032.50 386.58 C 1033.56 384.25, 1033.82 382.92, 1033.78 381.80 C 1033.73 380.68, 1033.21 380.42, 1032.26 380.97 C 1031.30 381.53, 1030.45 382.48, 1028.99 384.57 C 1027.52 386.65, 1026.75 388.13, 1024.93 391.41 C 1023.11 394.68, 1022.12 396.92, 1019.89 400.94 C 1017.66 404.96, 1016.43 407.22, 1013.78 411.51 C 1011.14 415.80, 1009.42 418.22, 1006.67 422.38 C 1003.92 426.54, 1002.54 428.93, 1000.04 432.31 C 997.55 435.70, 996.17 437.14, 994.20 439.32 C 992.22 441.49, 991.39 442.16, 990.16 443.19 C 988.93 444.21, 988.73 444.59, 988.04 444.44 C 987.35 444.29, 987.28 443.86, 986.72 442.43 C 986.15 441.00, 985.84 439.75, 985.21 437.30 C 984.58 434.84, 984.13 433.32, 983.57 430.16 C 983.00 427.00, 982.81 425.10, 982.37 421.49 C 981.92 417.89, 981.78 415.77, 981.34 412.13 C 980.91 408.50, 980.75 406.40, 980.19 403.32 C 979.64 400.24, 979.34 398.76, 978.56 396.72 C 977.79 394.68, 977.21 393.74, 976.31 393.12 C 975.41 392.50, 974.63 392.69, 974.07 393.61" style="stroke:#ac1159; fill:#ac1159;"/><path d="M 1053.69,423.89 C 1054.51 424.45, 1055.36 424.59, 1057.27 424.51 C 1059.17 424.43, 1060.54 424.44, 1063.21 423.50 C 1065.88 422.57, 1067.67 421.62, 1070.63 419.84 C 1073.60 418.05, 1075.11 416.78, 1078.02 414.58 C 1080.93 412.37, 1082.44 411.19, 1085.17 408.79 C 1087.90 406.40, 1089.39 405.11, 1091.65 402.60 C 1093.91 400.10, 1094.96 398.75, 1096.46 396.27 C 1097.97 393.79, 1098.54 392.58, 1099.17 390.21 C 1099.81 387.83, 1100.02 386.53, 1099.64 384.41 C 1099.26 382.28, 1098.65 381.11, 1097.26 379.60 C 1095.88 378.08, 1094.89 377.51, 1092.72 376.82 C 1090.56 376.14, 1089.21 375.83, 1086.44 376.17 C 1083.67 376.51, 1081.96 377.01, 1078.87 378.51 C 1075.79 380.01, 1074.11 381.16, 1070.99 383.66 C 1067.88 386.15, 1066.16 387.68, 1063.30 390.99 C 1060.43 394.30, 1058.91 396.24, 1056.68 400.21 C 1054.45 404.18, 1053.38 406.52, 1052.16 410.84 C 1050.94 415.17, 1050.47 417.57, 1050.57 421.84 C 1050.67 426.12, 1051.23 428.38, 1052.66 432.21 C 1054.08 436.03, 1054.94 438.00, 1057.70 440.95 C 1060.46 443.91, 1062.59 445.25, 1066.44 446.98 C 1070.30 448.71, 1072.60 449.12, 1076.99 449.59 C 1081.38 450.05, 1083.89 449.93, 1088.40 449.30 C 1092.90 448.66, 1095.22 448.04, 1099.53 446.40 C 1103.85 444.76, 1106.07 443.58, 1109.98 441.11 C 1113.89 438.63, 1115.70 437.11, 1119.07 434.03 C 1122.44 430.95, 1123.92 429.16, 1126.84 425.72 C 1129.76 422.28, 1131.31 420.32, 1133.68 416.84 C 1136.04 413.35, 1137.00 411.43, 1138.67 408.28 C 1140.34 405.13, 1141.06 403.56, 1142.04 401.09 C 1143.02 398.62, 1143.33 397.46, 1143.57 395.94 C 1143.81 394.42, 1143.63 393.96, 1143.22 393.49 C 1142.82 393.03, 1142.18 392.92, 1141.55 393.63 C 1140.92 394.34, 1140.37 395.08, 1140.07 397.06 C 1139.77 399.03, 1140.01 400.49, 1140.06 403.50 C 1140.11 406.52, 1140.23 408.52, 1140.32 412.13 C 1140.41 415.73, 1140.50 417.99, 1140.52 421.52 C 1140.54 425.05, 1140.26 426.84, 1140.40 429.77 C 1140.54 432.70, 1140.66 434.20, 1141.23 436.19 C 1141.79 438.18, 1142.20 438.95, 1143.22 439.72 C 1144.24 440.48, 1145.03 440.56, 1146.31 440.00 C 1147.59 439.44, 1148.49 438.86, 1149.62 436.92 C 1150.74 434.97, 1150.98 433.38, 1151.92 430.29 C 1152.85 427.20, 1153.03 425.05, 1154.29 421.45 C 1155.55 417.86, 1156.39 415.81, 1158.22 412.31 C 1160.04 408.81, 1161.21 407.00, 1163.40 403.94 C 1165.59 400.87, 1166.82 399.40, 1169.16 396.98 C 1171.49 394.57, 1172.85 393.58, 1175.07 391.88 C 1177.29 390.18, 1178.58 389.67, 1180.25 388.47 C 1181.93 387.26, 1182.45 386.72, 1183.45 385.86 C 1184.46 384.99, 1185.01 384.80, 1185.27 384.16 C 1185.52 383.52, 1185.40 382.97, 1184.73 382.67 C 1184.05 382.37, 1183.32 382.35, 1181.91 382.66 C 1180.50 382.96, 1179.68 383.17, 1177.67 384.20 C 1175.65 385.24, 1174.20 385.88, 1171.84 387.83 C 1169.48 389.78, 1168.23 391.22, 1165.85 393.95 C 1163.47 396.69, 1162.24 398.24, 1159.95 401.50 C 1157.66 404.75, 1156.45 406.62, 1154.40 410.24 C 1152.35 413.85, 1151.42 415.97, 1149.72 419.56 C 1148.01 423.15, 1147.04 425.16, 1145.86 428.19 C 1144.67 431.22, 1144.14 432.69, 1143.78 434.73 C 1143.41 436.76, 1143.72 437.56, 1144.02 438.36 C 1144.32 439.17, 1144.88 439.30, 1145.29 438.76 C 1145.70 438.22, 1145.95 437.49, 1146.08 435.65 C 1146.22 433.81, 1146.05 432.38, 1145.96 429.54 C 1145.86 426.71, 1145.65 424.94, 1145.61 421.49 C 1145.58 418.03, 1145.52 415.83, 1145.79 412.26 C 1146.06 408.70, 1146.77 406.76, 1146.96 403.66 C 1147.15 400.56, 1147.22 398.89, 1146.74 396.75 C 1146.26 394.62, 1145.52 393.85, 1144.55 392.99 C 1143.58 392.13, 1142.89 392.18, 1141.90 392.45 C 1140.92 392.72, 1140.56 392.99, 1139.63 394.33 C 1138.70 395.67, 1138.24 396.75, 1137.25 399.15 C 1136.26 401.56, 1136.06 403.23, 1134.68 406.34 C 1133.31 409.45, 1132.53 411.29, 1130.40 414.70 C 1128.27 418.10, 1126.78 420.03, 1124.03 423.37 C 1121.29 426.71, 1119.85 428.46, 1116.66 431.40 C 1113.47 434.35, 1111.76 435.77, 1108.08 438.09 C 1104.40 440.41, 1102.29 441.50, 1098.26 443.01 C 1094.22 444.51, 1092.06 445.07, 1087.89 445.61 C 1083.72 446.16, 1081.37 446.19, 1077.41 445.74 C 1073.44 445.29, 1071.42 444.87, 1068.06 443.37 C 1064.70 441.87, 1062.96 440.74, 1060.61 438.23 C 1058.26 435.72, 1057.57 434.13, 1056.33 430.83 C 1055.09 427.53, 1054.51 425.54, 1054.40 421.75 C 1054.30 417.95, 1054.67 415.80, 1055.79 411.88 C 1056.92 407.95, 1057.91 405.75, 1060.03 402.12 C 1062.14 398.50, 1063.61 396.69, 1066.37 393.75 C 1069.12 390.81, 1070.84 389.44, 1073.80 387.42 C 1076.75 385.40, 1078.45 384.72, 1081.15 383.65 C 1083.85 382.58, 1085.22 382.45, 1087.30 382.08 C 1089.39 381.71, 1090.23 381.67, 1091.58 381.79 C 1092.93 381.92, 1093.35 382.04, 1094.06 382.69 C 1094.77 383.34, 1095.05 383.84, 1095.14 385.05 C 1095.23 386.25, 1095.16 387.05, 1094.51 388.74 C 1093.87 390.42, 1093.24 391.36, 1091.92 393.48 C 1090.59 395.59, 1089.87 396.97, 1087.89 399.32 C 1085.91 401.67, 1084.58 402.97, 1082.02 405.21 C 1079.47 407.45, 1077.93 408.62, 1075.11 410.52 C 1072.29 412.43, 1070.76 413.41, 1067.90 414.75 C 1065.05 416.09, 1063.25 416.25, 1060.85 417.22 C 1058.44 418.20, 1057.42 418.74, 1055.89 419.63 C 1054.36 420.53, 1053.63 420.84, 1053.19 421.69 C 1052.75 422.54, 1052.88 423.32, 1053.69 423.89" style="stroke:#ac1159; fill:#ac1159;"/><path d="M 1221.79,388.60 C 1221.13 389.33, 1220.83 390.13, 1220.71 392.05 C 1220.58 393.97, 1220.46 395.41, 1221.18 398.22 C 1221.91 401.03, 1222.99 402.79, 1224.33 406.10 C 1225.67 409.40, 1226.22 411.35, 1227.86 414.73 C 1229.50 418.10, 1231.05 421.56, 1232.53 422.97 C 1234.01 424.38, 1235.28 423.79, 1235.25 421.77 C 1235.22 419.76, 1233.52 416.40, 1232.38 412.91 C 1231.25 409.41, 1230.53 407.58, 1229.59 404.28 C 1228.64 400.98, 1228.45 399.02, 1227.66 396.40 C 1226.87 393.79, 1226.36 392.79, 1225.62 391.19 C 1224.89 389.59, 1224.75 388.93, 1223.99 388.41 C 1223.22 387.89, 1222.45 387.87, 1221.79 388.60" style="stroke:#ac1159; fill:#ac1159;"/><path d="M 1283.21,388.94 C 1282.10 389.14, 1281.11 389.55, 1279.27 391.37 C 1277.43 393.20, 1276.63 394.62, 1274.01 398.07 C 1271.39 401.52, 1269.82 403.68, 1266.16 408.63 C 1262.50 413.58, 1260.34 416.64, 1255.72 422.83 C 1251.09 429.01, 1248.51 432.47, 1243.05 439.56 C 1237.60 446.65, 1234.39 450.69, 1228.44 458.27 C 1222.49 465.85, 1219.15 469.94, 1213.30 477.47 C 1207.45 484.99, 1204.45 488.93, 1199.19 495.87 C 1193.94 502.81, 1191.25 506.36, 1187.01 512.15 C 1182.77 517.94, 1180.81 520.68, 1178.00 524.82 C 1175.18 528.96, 1173.66 531.06, 1172.94 532.87 C 1172.23 534.67, 1173.03 535.20, 1174.43 533.86 C 1175.82 532.51, 1177.04 530.23, 1179.91 526.14 C 1182.77 522.05, 1184.59 519.23, 1188.75 513.40 C 1192.90 507.57, 1195.49 503.96, 1200.68 496.99 C 1205.87 490.01, 1208.86 486.07, 1214.70 478.55 C 1220.53 471.03, 1223.88 466.94, 1229.86 459.39 C 1235.85 451.83, 1239.08 447.81, 1244.62 440.78 C 1250.17 433.76, 1252.80 430.32, 1257.60 424.27 C 1262.39 418.22, 1264.66 415.24, 1268.59 410.53 C 1272.51 405.82, 1274.34 403.91, 1277.21 400.71 C 1280.08 397.51, 1281.39 396.58, 1282.91 394.52 C 1284.44 392.46, 1284.77 391.50, 1284.83 390.39 C 1284.89 389.27, 1284.32 388.75, 1283.21 388.94" style="stroke:#ac1159; fill:#ac1159;"/></svg>