<svg xmlns="http://www.w3.org/2000/svg" xmlns:xlink="http://www.w3.org/1999/xlink" version="1.1" width="1167.366957205306" height="559.9856193088182"><desc>title%20INSERT%20PACKAGE%0A%0Aactor%20Client%20UI%0Aparticipant%20PackageController%20(API)%0Aparticipant%20PackageService%0Aparticipant%20PackageRepository%0Adatabase%20DB%0A%0AClient%20UI-%3EPackageController%20(API)%3A%20POST%20%2Fpackages%0APackageController%20(API)-%3EPackageService%3A%20createPackage(Package%20package)%0APackageService-%3EPackageRepository%3A%20save(Package%20package)%0APackageRepository-%3EDB%3A%20Validate%20and%20save%20the%20package%0APackageRepository%3C--DB%3A%20Return%20package%20data%20with%20generated%20ID%0A%0A%20%20%20%20PackageService%3C--PackageRepository%3A%20Returns%20Package%20object%0A%20%20%20%20PackageController%20(API)%3C--PackageService%3A%20Sends%20package%20data%20back%20to%20the%20API%0A%20%20%20%20Client%20UI%3C--PackageController%20(API)%3A%20Return%20the%20created%20Package%20as%20response%0A</desc><defs/><g><g/><g/><g/><g/><g/><g/><g/><g/><g/><g/><g/><g/><g/><g/><g/><g/><g/><g/><g/><g/><g/><g/><g/><g/><g/><g/><g/><g/><g/><g/><g/><g/><g/><g/><g/><g/><g/><g/><g/><g/><g/><g/><g/><g/><g/><g/><g/><g/><g/><g/><g/><g/><g/><g/><g/><g/><g/><g/><g/><g/><g/><g/><g/><g/><g/><g/><g/><g/><g/><g/><g><rect fill="white" stroke="none" x="0" y="0" width="1167" height="559"/></g><g/><g><path fill="none" stroke="black" paint-order="fill stroke markers" d=" M 36.274252956152345 128.73625218881818 L 36.274252956152345 559.9856193088182" stroke-miterlimit="10" stroke-width="1.3612669416666667" stroke-dasharray="12.565541,5.445067766666667"/><path fill="none" stroke="black" paint-order="fill stroke markers" d=" M 346.3200093228841 128.73625218881818 L 346.3200093228841 559.9856193088182" stroke-miterlimit="10" stroke-width="1.3612669416666667" stroke-dasharray="12.565541,5.445067766666667"/><path fill="none" stroke="black" paint-order="fill stroke markers" d=" M 627.0458194005535 128.73625218881818 L 627.0458194005535 559.9856193088182" stroke-miterlimit="10" stroke-width="1.3612669416666667" stroke-dasharray="12.565541,5.445067766666667"/><path fill="none" stroke="black" paint-order="fill stroke markers" d=" M 827.8861619489259 128.73625218881818 L 827.8861619489259 559.9856193088182" stroke-miterlimit="10" stroke-width="1.3612669416666667" stroke-dasharray="12.565541,5.445067766666667"/><path fill="none" stroke="black" paint-order="fill stroke markers" d=" M 1126.528948955306 128.73625218881818 L 1126.528948955306 559.9856193088182" stroke-miterlimit="10" stroke-width="1.3612669416666667" stroke-dasharray="12.565541,5.445067766666667"/></g><g><g><path fill="white" stroke="black" paint-order="fill stroke markers" d=" M 45.58531883715234 59.63834222981819 A 9.311065881 9.311065881 0 1 1 45.58531418161979 59.62903116548903 M 36.274252956152345 68.9494081108182 L 36.274252956152345 88.8783561368182 M 24.512906580152347 76.13689756281819 L 48.035599332152344 76.13689756281819 M 36.274252956152345 88.8783561368182 L 24.512906580152347 107.50048789881819 M 36.274252956152345 88.8783561368182 L 48.035599332152344 107.50048789881819" stroke-miterlimit="10" stroke-width="2.7769845610000004" stroke-dasharray=""/></g><g><g/><text fill="black" stroke="none" font-family="sans-serif" font-size="11pt" font-style="normal" font-weight="normal" text-decoration="normal" x="8.167601650000002" y="123.83569119881818" text-anchor="start" dominant-baseline="alphabetic" xml:space="preserve">Client UI</text></g><path fill="none" stroke="none"/><g><path fill="white" stroke="black" paint-order="fill stroke markers" d=" M 249.56271388886847 84.63120327881819 L 443.0773047568997 84.63120327881819 L 443.0773047568997 128.73625218881818 L 249.56271388886847 128.73625218881818 L 249.56271388886847 84.63120327881819 Z" stroke-miterlimit="10" stroke-width="2.613632528" stroke-dasharray=""/></g><g><g/><text fill="black" stroke="none" font-family="sans-serif" font-size="11pt" font-style="normal" font-weight="normal" text-decoration="normal" x="267.2864094693685" y="112.40104888881817" text-anchor="start" dominant-baseline="alphabetic" xml:space="preserve">PackageController (API)</text></g><path fill="none" stroke="none"/><g><path fill="white" stroke="black" paint-order="fill stroke markers" d=" M 556.3550828044284 84.63120327881819 L 697.7365559966785 84.63120327881819 L 697.7365559966785 128.73625218881818 L 556.3550828044284 128.73625218881818 L 556.3550828044284 84.63120327881819 Z" stroke-miterlimit="10" stroke-width="2.613632528" stroke-dasharray=""/></g><g><g/><text fill="black" stroke="none" font-family="sans-serif" font-size="11pt" font-style="normal" font-weight="normal" text-decoration="normal" x="574.0787783849285" y="112.40104888881817" text-anchor="start" dominant-baseline="alphabetic" xml:space="preserve">PackageService</text></g><path fill="none" stroke="none"/><g><path fill="white" stroke="black" paint-order="fill stroke markers" d=" M 746.6012938830743 84.63120327881819 L 909.1710300147774 84.63120327881819 L 909.1710300147774 128.73625218881818 L 746.6012938830743 128.73625218881818 L 746.6012938830743 84.63120327881819 Z" stroke-miterlimit="10" stroke-width="2.613632528" stroke-dasharray=""/></g><g><g/><text fill="black" stroke="none" font-family="sans-serif" font-size="11pt" font-style="normal" font-weight="normal" text-decoration="normal" x="764.3249894635743" y="112.40104888881817" text-anchor="start" dominant-baseline="alphabetic" xml:space="preserve">PackageRepository</text></g><g><path fill="white" stroke="black" paint-order="fill stroke markers" d=" M 1102.679552137306 96.71925372081819 L 1102.679552137306 62.41532679081819 L 1150.3783457733061 62.41532679081819 L 1150.3783457733061 96.71925372081819" stroke-miterlimit="10" stroke-width="2.7769845610000004" stroke-dasharray=""/><path fill="white" stroke="black" paint-order="fill stroke markers" d=" M 1150.3783457733061 61.22285694991819 L 1150.3771533134025 61.33066749483481 L 1150.3735760529364 61.43846725878678 L 1150.367614349631 61.546245461887544 L 1150.3592687996518 61.65399132640659 L 1150.3485402375466 61.761694077847274 L 1150.3354297361627 61.86934294602419 L 1150.3199386065394 61.976927166140236 L 1150.3020683977768 62.084435979863045 L 1150.2818208968808 62.19185863640084 L 1150.2591981285846 62.299184393577484 L 1150.2342023551462 62.4064025189067 L 1150.2068360761223 62.51350229066531 L 1150.1771020281176 62.62047299896537 L 1150.1450031845125 62.7273039468252 L 1150.1105427551643 62.83398445123905 L 1150.0737241860875 62.94050384424536 L 1150.0345511591083 63.04685147399361 L 1149.9930275914965 63.15301670580944 L 1149.9491576355745 63.25898892325815 L 1149.9029456783012 63.364757529206294 L 1149.8543963408338 63.47031194688142 L 1149.8035144780658 63.575641620929716 L 1149.7503051781407 63.68073601847156 L 1149.6947737619446 63.78558463015478 L 1149.6369257825727 63.89017697120557 L 1149.5767670247744 63.994502582477 L 1149.5143035043757 64.09855103149486 L 1149.4495414676767 64.20231191350096 L 1149.3824873908266 64.3057748524936 L 1149.3131479791775 64.40892950226505 L 1149.241530166613 64.51176554743633 L 1149.1676411148544 64.61427270448858 L 1149.0914882127452 64.71644072279157 L 1149.0130790755125 64.81825938562858 L 1148.9324215440045 64.91971851121816 L 1148.849523683907 65.02080795373233 L 1148.764393784937 65.12151760431107 L 1148.6770403600137 65.22183739207324 L 1148.5874721444065 65.32175728512367 L 1148.4956980948623 65.42126729155632 L 1148.40172738871 65.52035746045347 L 1148.3055694229415 65.6190178828808 L 1148.2072338132732 65.71723869287828 L 1148.1067303931845 65.81501006844678 L 1148.0040692129332 65.91232223253022 L 1147.8992605385522 66.00916545399325 L 1147.7923148508214 66.10553004859446 L 1147.6832428442206 66.20140637995469 L 1147.5720554258592 66.29678486052069 L 1147.4587637143866 66.39165595252388 L 1147.3433790388797 66.48601016893414 L 1147.2259129377096 66.57983807440844 L 1147.1063771573888 66.67313028623443 L 1146.9847836513954 66.76587747526865 L 1146.861144578979 66.85807036686953 L 1146.7354723039437 66.94969974182469 L 1146.607779393412 67.04075643727302 L 1146.4780786165693 67.13123134762085 L 1146.3463829433842 67.22111542545254 L 1146.212705543315 67.3103996824352 L 1146.07705978399 67.39907519021754 L 1145.9394592298722 67.4871330813227 L 1145.7999176409023 67.57456455003492 L 1145.658448971123 67.6613608532802 L 1145.5150673672833 67.74751331150055 L 1145.369787167424 67.83301330952195 L 1145.2226228994443 67.91785229741582 L 1145.073589279648 68.00202179135408 L 1144.9227012112733 68.08551337445749 L 1144.769973783001 68.1683186976373 L 1144.6154222674465 68.25042948043021 L 1144.459062119633 68.33183751182635 L 1144.3009089754448 68.41253465109044 L 1144.1409786500647 68.4925128285758 L 1143.9792871363913 68.5717640465313 L 1143.815850603442 68.65028037990122 L 1143.6506853947335 68.72805397711764 L 1143.4838080266493 68.80507706088565 L 1143.3152351867868 68.88134192896105 L 1143.1449837322896 68.95684095492061 L 1142.9730706881614 69.03156658892462 L 1142.7995132455635 69.10551135847197 L 1142.624328760095 69.17866786914732 L 1142.447534750059 69.25102880536058 L 1142.269148894709 69.3225869310784 L 1142.0891890324817 69.39333509054786 L 1141.9076731592136 69.46326620901198 L 1141.7246194263407 69.53237329341717 L 1141.5400461390836 69.60064943311258 L 1141.3539717546175 69.66808780054113 L 1141.1664148802256 69.7346816519223 L 1140.977394271439 69.80042432792644 L 1140.786928830161 69.86530925434072 L 1140.5950376027772 69.92932994272657 L 1140.4017397782504 69.9924799910685 L 1140.207054686202 70.05475308441433 L 1140.0110017949787 70.1161429955066 L 1139.8136007097066 70.17664358540536 L 1139.6148711703295 70.23624880410202 L 1139.4148330496357 70.29495269112441 L 1139.2135063512708 70.35274937613272 L 1139.0109112077366 70.40963307950663 L 1138.807067878379 70.46559811292322 L 1138.6019967473605 70.52063887992576 L 1138.395718321624 70.57474987648341 L 1138.1882532288396 70.62792569154163 L 1137.9796222153439 70.68016100756323 L 1137.7698461440643 70.73145060106012 L 1137.5589459924333 70.78178934311569 L 1137.3469428502904 70.8311721998977 L 1137.1338579177727 70.8795942331616 L 1136.9197125031963 70.92705060074444 L 1136.704528020924 70.973536557049 L 1136.488325989225 71.01904745351838 L 1136.2711280281217 71.06357873910088 L 1136.0529558572296 71.10712596070502 L 1135.8338312935841 71.14968476364494 L 1135.6137762494589 71.19125089207583 L 1135.3928127301747 71.23182018941947 L 1135.1709628318997 71.27138859877994 L 1134.9482487394387 71.30995216334925 L 1134.7246927240153 71.34750702680313 L 1134.5003171410447 71.38404943368649 L 1134.2751444278983 71.4195757297891 L 1134.04919710166 71.45408236251096 L 1133.8224977568739 71.48756588121756 L 1133.5950690632853 71.52002293758491 L 1133.3669337635747 71.55145028593446 L 1133.1381146710812 71.58184478355753 L 1132.908634667524 71.61120339102969 L 1132.678516700712 71.63952317251467 L 1132.4477837822499 71.66680129605793 L 1132.2164589852375 71.69303503386982 L 1131.9845654419616 71.71822176259843 L 1131.7521263415836 71.7423589635919 L 1131.5191649278195 71.7654442231502 L 1131.2857044966165 71.78747523276665 L 1131.0517683938235 71.80844978935863 L 1130.8173800128557 71.82836579548797 L 1130.5825627923557 71.84722125957065 L 1130.34734021385 71.86501429607597 L 1130.1117357994003 71.8817431257151 L 1129.8757731092521 71.89740607561903 L 1129.6394757394773 71.91200157950583 L 1129.4028673196162 71.92552817783725 L 1129.1659715103137 71.93798451796474 L 1128.9288120009533 71.94936935426468 L 1128.691412507288 71.95968154826289 L 1128.4537967690696 71.96892006874862 L 1128.215988547674 71.97708399187748 L 1127.978011623725 71.98417250126396 L 1127.7398897947166 71.99018488806304 L 1127.5016468726333 71.99512055104105 L 1127.263306681569 71.99897899663581 L 1127.024893055344 72.00175983900598 L 1126.7864298351224 72.00346280006961 L 1126.5479408670271 72.00408770953204 L 1126.3094499997567 72.00363450490285 L 1126.0709810821988 72.0021032315021 L 1125.8325579610466 71.99949404245586 L 1125.5942044784135 71.9958071986809 L 1125.3559444694492 71.99104306885846 L 1125.117801759956 71.98520212939759 L 1124.8798001640062 71.97828496438737 L 1124.6419634815613 71.97029226553852 L 1124.4043154960914 71.96122483211428 L 1124.166879972197 71.95108357085043 L 1123.9296806532323 71.93986949586466 L 1123.6927412589318 71.92758372855508 L 1123.4560854830374 71.91422749748824 L 1123.2197369909297 71.89980213827607 L 1122.9837194172608 71.8843090934425 L 1122.748056363591 71.86774991227908 L 1122.51277139603 71.85012625069015 L 1122.277888042878 71.83143987102717 L 1122.0434297922748 71.81169264191253 L 1121.8094200898497 71.79088653805269 L 1121.5758823363785 71.7690236400407 L 1121.3428398854414 71.74610613414815 L 1121.1103160410898 71.72213631210651 L 1120.878334055514 71.69711657087802 L 1120.6469171267192 71.67104941241597 L 1120.4160883962059 71.64393744341446 L 1120.1858709466542 71.6157833750478 L 1119.9562877996177 71.58659002269937 L 1119.7273619132195 71.55636030568009 L 1119.4991161798575 71.52509724693644 L 1119.2715734239148 71.49280397274828 L 1119.0447563994776 71.45948371241609 L 1118.818687788059 71.42513979793813 L 1118.593390196332 71.38977566367726 L 1118.368886153868 71.35339484601741 L 1118.1451981108842 71.31600098301004 L 1117.9223484359982 71.27759781401028 L 1117.7003594139921 71.23818917930303 L 1117.479253243583 71.19777901971894 L 1117.2590520352037 71.15637137624027 L 1117.0397778087913 71.11397038959687 L 1116.8214524915861 71.07058029985207 L 1116.604097915938 71.02620544597868 L 1116.3877358171228 70.98085026542512 L 1116.1723878311705 70.93451929367163 L 1115.9580754927001 70.8872171637768 L 1115.744820232767 70.8389486059142 L 1115.5326433767195 70.78971844689937 L 1115.3215661420663 70.7395316097072 L 1115.111609636355 70.6883931129796 L 1114.902794855061 70.6363080705236 L 1114.6951426794888 70.58328169080006 L 1114.4886738746825 70.52931927640276 L 1114.283409087351 70.47442622352818 L 1114.0793688438014 70.41860802143584 L 1113.8765735478885 70.36187025189946 L 1113.6750434789728 70.3042185886487 L 1113.474798789893 70.24565879680183 L 1113.2758595049515 70.18619673228926 L 1113.0782455179108 70.12583834126788 L 1112.8819765900048 70.06458965952649 L 1112.687072347963 70.00245681188221 L 1112.493552282047 69.93944601156807 L 1112.3014357441023 69.87556355961155 L 1112.1107419456225 69.81081584420461 L 1111.9214899558285 69.74520934006487 L 1111.7336986997616 69.67875060778805 L 1111.547386956391 69.61144629319199 L 1111.3625733567355 69.54330312665208 L 1111.1792763820015 69.47432792242817 L 1110.9975143617332 69.40452757798322 L 1110.8173054719816 69.3339090732935 L 1110.6386677334854 69.26247947015062 L 1110.4616190098695 69.19024591145539 L 1110.2861770058587 69.11721562050347 L 1110.1123592655072 69.0433959002631 L 1109.9401831704442 68.96879413264479 L 1109.769665938136 68.89341777776313 L 1109.6008246201634 68.81727437319081 L 1109.4336761005175 68.74037153320482 L 1109.268237093911 68.66271694802508 L 1109.104524144107 68.58431838304537 L 1108.9425536222636 68.5051836780569 L 1108.7823417252982 68.4253207464642 L 1108.6239044742672 68.34473757449386 L 1108.4672577127635 68.26344222039596 L 1108.3124171053325 68.18144281363814 L 1108.1593981359063 68.09874755409275 L 1108.008216106254 68.01536471121685 L 1107.8588861344526 67.9313026232252 L 1107.711423153375 67.84656969625658 L 1107.5658419091967 67.76117440353308 L 1107.4221569599201 67.67512528451279 L 1107.280382673921 67.5884309440359 L 1107.1405332285094 67.50110005146425 L 1107.0026226085138 67.41314133981427 L 1106.8666646048807 67.32456360488388 L 1106.7326728132978 67.23537570437271 L 1106.600660632832 67.14558655699653 L 1106.4706412645917 67.05520514159522 L 1106.3426277104052 66.96424049623502 L 1106.2166327715213 66.87270171730466 L 1106.0926690473289 66.78059795860575 L 1105.9707489340972 66.68793843043741 L 1105.8508846237357 66.59473239867523 L 1105.7330881025757 66.50098918384472 L 1105.6173711501713 66.40671816018926 L 1105.5037453381212 66.31192875473263 L 1105.3922220289116 66.2166304463364 L 1105.282812374781 66.120832764752 L 1105.1755273166034 66.02454528966774 L 1105.0703775827951 65.92777764975091 L 1104.967373688242 65.83053952168484 L 1104.8665259332479 65.73284062920132 L 1104.7678444025037 65.63469074210818 L 1104.6713389640809 65.53609967531233 L 1104.5770192684422 65.4370772878383 L 1104.4848947474793 65.33763348184232 L 1104.3949746135672 65.23777820162212 L 1104.307267858644 65.13752143262249 L 1104.2217832533129 65.03687320043682 L 1104.1385293459625 64.93584356980442 L 1104.0575144619147 64.83444264360419 L 1103.97874670259 64.73268056184422 L 1103.9022339446985 64.63056750064791 L 1103.8279838394528 64.52811367123628 L 1103.756003811801 64.42532931890689 L 1103.6863010596865 64.32222472200931 L 1103.6188825533259 64.21881019091732 L 1103.5537550345139 64.11509606699785 L 1103.490925015948 64.01109272157687 L 1103.430398780578 63.90681055490224 L 1103.3721823809765 63.80225999510374 L 1103.316281638735 63.697451497150205 L 1103.2627021438816 63.59239554180411 L 1103.211449254321 63.48710263457343 L 1103.162528095299 63.381583304661156 L 1103.1159435588913 63.27584810391234 L 1103.0717003035122 63.16990760575894 L 1103.029802753451 63.06377240416249 L 1102.990255098427 62.95745311255472 L 1102.9530612931735 62.85096036277616 L 1102.9182250570395 62.744304804013076 L 1102.88574987362 62.63749710173245 L 1102.8556389904059 62.530547936615505 L 1102.8278954184607 62.423468003489624 L 1102.8025219321182 62.316268010258895 L 1102.7795210687063 62.208958676833305 L 1102.758895128292 62.10155073405677 L 1102.7406461734518 61.99405492263407 L 1102.7247760290663 61.88648199205676 L 1102.7112862821368 61.77884269952825 L 1102.7001782816267 61.6711478088881 L 1102.6914531383266 61.56340808953563 L 1102.6851117247436 61.45563431535299 L 1102.6811546750139 61.34783726362778 L 1102.6795823848393 61.24002771397536 L 1102.6803950114472 61.13221644726084 L 1102.6835924735758 61.02441424452105 L 1102.6891744514814 60.916631885886424 L 1102.6971403869711 60.808880149503025 L 1102.707489483458 60.70116981045468 L 1102.7202207060407 60.59351163968555 L 1102.735332781608 60.48591640292299 L 1102.7528241989644 60.378394859601016 L 1102.7726932089831 60.27095776178435 L 1102.79493782478 60.163615853093255 L 1102.8195558219113 60.05637986762915 L 1102.8465447385984 59.949260528901206 L 1102.8759018759717 59.84226854875404 L 1102.9076242983422 59.7354146262965 L 1102.941708833494 59.62870944683179 L 1102.978152073002 59.52216368078894 L 1103.0169503725729 59.41578798265577 L 1103.0580998524085 59.30959298991343 L 1103.1015963975956 59.203589321972714 L 1103.1474356585156 59.09778757911208 L 1103.1956130512808 58.992198341417634 L 1103.246123758192 58.88683216772516 L 1103.2989627282207 58.78169959456423 L 1103.3541246775137 58.67681113510454 L 1103.4116040899223 58.57217727810464 L 1103.4713952175532 58.46780848686303 L 1103.5334920813432 58.36371519817185 L 1103.5978884716576 58.25990782127324 L 1103.6645779489113 58.15639673681838 L 1103.733553844212 58.053192295829454 L 1103.804809260028 57.950304818664556 L 1103.8783370708766 57.84774459398567 L 1103.9541299240382 57.745521877729786 L 1104.0321802402907 57.64364689208335 L 1104.1124802146674 57.54212982446004 L 1104.1950218172378 57.44098082648201 L 1104.2797967939107 57.340210012964775 L 1104.3667966672585 57.2398274609057 L 1104.456012737367 57.13984320847635 L 1104.547436082703 57.040267254018644 L 1104.6410575610084 56.94110955504505 L 1104.7368678102137 56.84238002724283 L 1104.8348572493733 56.74408854348249 L 1104.935016079625 56.646244932830506 L 1105.0373342851694 56.54885897956639 L 1105.1418016342714 56.45194042220433 L 1105.2484076802828 56.35549895251929 L 1105.3571417626881 56.25954421457787 L 1105.4679930081695 56.16408580377391 L 1105.5809503316948 56.06913326586893 L 1105.6960024376258 55.974696096037604 L 1105.813137820848 55.88078373791821 L 1105.9323447679205 55.7874055826683 L 1106.053611358248 55.694570968025594 L 1106.1769254652722 55.60228917737418 L 1106.3022747576858 55.51056943881623 L 1106.4296467006634 55.41942092424918 L 1106.5590285571172 55.328852748448504 L 1106.6904073889693 55.23887396815633 L 1106.823770058446 55.14949358117568 L 1106.9591032293913 55.0607205254708 L 1107.0963933686012 54.97256367827326 L 1107.235626747176 54.88503185519433 L 1107.3767894418938 54.79813380934336 L 1107.519867336603 54.71187823045254 L 1107.6648461236332 54.62627374400786 L 1107.8117113052265 54.541328910386646 L 1107.960448194987 54.45705222400146 L 1108.11104191935 54.373452112450714 L 1108.2634774190683 54.290536935675895 L 1108.4177394507192 54.20831498512558 L 1108.5738125882278 54.12679448292632 L 1108.7316812244107 54.0459835810604 L 1108.8913295725356 53.965890360550645 L 1109.0527416679008 53.88652283065238 L 1109.215901369431 53.80788892805245 L 1109.3807923612928 53.72999651607559 L 1109.5473981545238 53.652853383898076 L 1109.7157020886834 53.57646724576885 L 1109.8856873335187 53.50084574023808 L 1110.057336890647 53.42599642939328 L 1110.2306335952553 53.35192679810317 L 1110.405560117818 53.278644253269164 L 1110.582098965828 53.20615612308466 L 1110.7602324855482 53.13446965630228 L 1110.9399428637746 53.06359202150896 L 1111.1212121296196 52.99353030640911 L 1111.3040221563074 52.924291517115876 L 1111.4883546629876 52.85588257745046 L 1111.6741912165633 52.78831032824984 L 1111.8615132335337 52.72158152668263 L 1112.0503019818539 52.65570284557336 L 1112.2405385828056 52.590680872735255 L 1112.4322040128877 52.52652211031142 L 1112.6252791057168 52.463232974124615 L 1112.8197445539445 52.40081979303573 L 1113.015580911188 52.33928880831086 L 1113.212768593975 52.278646172997206 L 1113.411287883701 52.21889795130775 L 1113.611118928603 52.160050118014894 L 1113.812241745743 52.1021085578529 L 1114.0146362230066 52.045079064929524 L 1114.2182821211147 51.98896734214652 L 1114.4231590756476 51.933779000629414 L 1114.6292465990803 51.87951955916637 L 1114.8365240828323 51.826194443656306 L 1115.0449707993278 51.77380898656634 L 1115.2545659040688 51.72236842639853 L 1115.46528843772 51.67187790716602 L 1115.677117328203 51.622342477878675 L 1115.8900313928054 51.57376709203812 L 1116.1040093402985 51.526156607142475 L 1116.3190297730657 51.47951578420055 L 1116.535071189243 51.43384928725578 L 1116.7521119848686 51.38916168291979 L 1116.9701304560438 51.34545743991578 L 1117.1891048011034 51.302740928631636 L 1117.4090131227952 51.261016420682886 L 1117.6298334304704 51.220288088485546 L 1117.851543642282 51.18056000483891 L 1118.0741215873938 51.14183614251822 L 1118.297545008197 51.10412037387746 L 1118.521791562535 51.06741647046204 L 1118.7468388259401 51.03172810263173 L 1118.9726642938729 50.99705883919358 L 1119.1992453839748 50.96341214704502 L 1119.426559438326 50.930791390827245 L 1119.6545837257102 50.899199832588685 L 1119.8832954438885 50.86864063145883 L 1120.1126717218801 50.83911684333235 L 1120.3426896222481 50.81063142056343 L 1120.5733261433943 50.78318721167063 L 1120.8045582218588 50.75678696105195 L 1121.0363627346262 50.731433308710464 L 1121.2687165014386 50.70712878999027 L 1121.5015962871128 50.683875835323 L 1121.7349788038644 50.66167676998473 L 1121.968840713636 50.6405338138635 L 1122.2031586304317 50.6204490812373 L 1122.4379091226554 50.60142458056266 L 1122.673068715453 50.583462214273794 L 1122.9086138930613 50.566563778592354 L 1123.144521101159 50.55073096334783 L 1123.3807667492217 50.53596535180856 L 1123.6173272128815 50.52226842052339 L 1123.8541788362893 50.50964153917403 L 1124.0912979344798 50.49808597043808 L 1124.3286607957414 50.48760286986282 L 1124.566243683985 50.47819328574954 L 1124.8040228411205 50.46985815904882 L 1125.0419744894298 50.462598323266384 L 1125.2800748339466 50.456414504379765 L 1125.5183000648346 50.45130732076569 L 1125.7566263597696 50.44727728313828 L 1125.9950298863207 50.444324794497916 L 1126.2334868043336 50.44245015009101 L 1126.4719732683154 50.44165353738045 L 1126.7104654298184 50.44193503602685 L 1126.9489394398254 50.443294617880554 L 1127.1873714511337 50.445732146984525 L 1127.425737620741 50.44924737958788 L 1127.6640141122296 50.45383996417029 L 1127.9021770981478 50.459509441477124 L 1128.1402027623965 50.46625524456538 L 1128.378067302607 50.474076698860365 L 1128.6157469325237 50.48297302222316 L 1128.8532178843816 50.49294332502887 L 1129.0904564112836 50.50398661025549 L 1129.3274387895747 50.51610177358371 L 1129.5641413212143 50.52928760350731 L 1129.8005403361465 50.54354278145426 L 1130.036612194667 50.55886588191867 L 1130.2723332897867 50.575255372603245 L 1130.5076800495924 50.592709614572584 L 1130.7426289396042 50.61122686241703 L 1130.9771564651292 50.630805264427224 L 1131.2112391736098 50.651442862779284 L 1131.4448536569705 50.67313759373059 L 1131.6779765539577 50.695887287826096 L 1131.9105845524757 50.71968967011537 L 1132.1426543919188 50.74454236038002 L 1132.3741628654964 50.77044287337172 L 1132.6050868225536 50.797388619060754 L 1132.835403170888 50.825376902895016 L 1133.0650888790558 50.85440492606945 L 1133.2941209786782 50.88446978580591 L 1133.5224765667358 50.9155684756435 L 1133.7501328078604 50.947697885739125 L 1133.9770669366171 50.980854803178566 L 1134.2032562597826 51.01503591229771 L 1134.4286781586127 51.05023779501413 L 1134.6533100911058 51.08645693116888 L 1134.8771295942554 51.12368969887854 L 1135.1001142862979 51.16193237489736 L 1135.32224186895 51.201181134989596 L 1135.5434901296385 51.241432054311964 L 1135.7638369437216 51.28268110780607 L 1135.9832602767015 51.32492417060092 L 1136.201738186428 51.368157018425464 L 1136.4192488252918 51.41237532803093 L 1136.6357704424106 51.45757467762322 L 1136.851281385803 51.503750547305025 L 1137.0657601045543 51.55089831952786 L 1137.2791851509712 51.5990132795538 L 1137.4915351827271 51.64809061592693 L 1137.7027889649958 51.69812542095451 L 1137.912925372575 51.749112691197745 L 1138.1219233919992 51.801047327972086 L 1138.3297621236402 51.85392413785714 L 1138.5364207837986 51.90773783321599 L 1138.7418787067802 51.962483032723924 L 1138.9461153469642 52.01815426190663 L 1139.1491102808566 52.07474595368758 L 1139.3508432091332 52.132252448944755 L 1139.5512939586692 52.190667997076545 L 1139.750442484557 52.24998675657682 L 1139.9482688721096 52.310202795619055 L 1140.1447533388532 52.371310092649544 L 1140.3398762365048 52.43330253698949 L 1140.5336180529375 52.49617392944612 L 1140.725959414131 52.559917982932596 L 1140.9168810861095 52.62452832309667 L 1141.1063639768647 52.68999848895818 L 1141.2943891382656 52.7563219335551 L 1141.4809377679526 52.823492024598224 L 1141.6659912112184 52.89150204513444 L 1141.8495309628727 52.960345194218355 L 1142.0315386690934 53.03001458759244 L 1142.2119961292613 53.10050325837541 L 1142.390885297781 53.171804157758935 L 1142.568188285885 53.243910155712484 L 1142.7438873634217 53.31681404169635 L 1142.9179649606301 53.39050852538269 L 1143.0904036698953 53.46498623738456 L 1143.2611862474903 53.5402397299928 L 1143.4302956152997 53.61626147792087 L 1143.5977148625273 53.69304387905734 L 1143.763427247388 53.770579255226075 L 1143.9274161987819 53.848859852954064 L 1144.0896653179498 53.92787784424677 L 1144.2501583801154 54.00762532737092 L 1144.408879336106 54.08809432764465 L 1144.5658123139588 54.16927679823499 L 1144.7209416205062 54.251164620962534 L 1144.8742517429469 54.33374960711325 L 1145.0257273503967 54.41702349825734 L 1145.1753532954208 54.500977967075094 L 1145.3231146155497 54.58560461818958 L 1145.468996534774 54.670894989006214 L 1145.612984465024 54.75684055055899 L 1145.755064007626 54.84343270836337 L 1145.895220954745 54.93066280327574 L 1146.033441290802 55.0185221123593 L 1146.1697111938795 55.107001849756344 L 1146.3040170371003 55.196093167566886 L 1146.436345389992 55.28578715673337 L 1146.5666830198297 55.37607484793163 L 1146.695016892959 55.46694721246779 L 1146.8213341760998 55.55839516318112 L 1146.9456222376284 55.65040955535275 L 1147.067868648843 55.742981187620146 L 1147.1880611852037 55.83610080289723 L 1147.306187827557 55.92975908930006 L 1147.4222367633379 56.02394668107806 L 1147.5361963877488 56.11865415955053 L 1147.6480553049223 56.213872054048544 L 1147.7578023290603 56.30959084286201 L 1147.8654264855513 56.405800954191804 L 1147.9709170120698 56.50249276710697 L 1148.074263359651 56.5996566125068 L 1148.1754551937458 56.69728277408771 L 1148.2744823952557 56.79536148931491 L 1148.3713350615428 56.89388295039859 L 1148.4660035074212 56.99283730527477 L 1148.5584782661251 57.09221465859041 L 1148.6487500902558 57.19200507269298 L 1148.7368099527062 57.29219856862425 L 1148.8226490475633 57.39278512711811 L 1148.906258790989 57.49375468960253 L 1148.9876308220792 57.59509715920541 L 1149.066757003698 57.69680240176424 L 1149.1436294232935 57.79886024683951 L 1149.2182403936877 57.90126048873177 L 1149.2905824538457 58.003992887502164 L 1149.360648369622 58.10704716999642 L 1149.428431134483 58.21041303087217 L 1149.493923970209 58.31408013362946 L 1149.5571203275708 58.41803811164441 L 1149.6180138869854 58.52227656920584 L 1149.6765985591478 58.62678508255487 L 1149.7328684856395 58.731553200927245 L 1149.7868180395149 58.83657044759845 L 1149.838441825863 58.94182632093131 L 1149.8877346823488 59.04731029542622 L 1149.9346916797272 59.153011822773635 L 1149.9793081223381 59.25892033290889 L 1150.0215795485742 59.36502523506925 L 1150.061501731328 59.471315918852895 L 1150.0990706784146 59.57778175528004 L 1150.1342826329708 59.684412097855756 L 1150.16713407383 59.79119628363465 L 1150.1976217158758 59.89812363428712 L 1150.2257425103696 60.005183457167206 L 1150.251493645255 60.11236504638185 L 1150.27487254544 60.21965768386144 L 1150.2958768730546 60.327050640431644 L 1150.3145045276826 60.43453317688629 L 1150.330753646575 60.5420945450613 L 1150.344622604833 60.6497239889095 L 1150.356110015572 60.757410745576195 L 1150.3652147300613 60.86514404647545 L 1150.3719358378364 60.972913118366954 L 1150.3762726667926 61.08070718443333 L 1150.37822478325 61.188515465357796 M 1150.3783457733061 95.52678387991818 L 1150.3771533134025 95.6345944248348 L 1150.3735760529364 95.74239418878678 L 1150.367614349631 95.85017239188754 L 1150.3592687996518 95.95791825640659 L 1150.3485402375466 96.06562100784727 L 1150.3354297361627 96.1732698760242 L 1150.3199386065394 96.28085409614023 L 1150.3020683977768 96.38836290986303 L 1150.2818208968808 96.49578556640084 L 1150.2591981285846 96.60311132357748 L 1150.2342023551462 96.7103294489067 L 1150.2068360761223 96.8174292206653 L 1150.1771020281176 96.92439992896537 L 1150.1450031845125 97.0312308768252 L 1150.1105427551643 97.13791138123905 L 1150.0737241860875 97.24443077424536 L 1150.0345511591083 97.35077840399362 L 1149.9930275914965 97.45694363580944 L 1149.9491576355745 97.56291585325815 L 1149.9029456783012 97.66868445920629 L 1149.8543963408338 97.77423887688141 L 1149.8035144780658 97.8795685509297 L 1149.7503051781407 97.98466294847155 L 1149.6947737619446 98.08951156015478 L 1149.6369257825727 98.19410390120557 L 1149.5767670247744 98.29842951247699 L 1149.5143035043757 98.40247796149485 L 1149.4495414676767 98.50623884350097 L 1149.3824873908266 98.60970178249359 L 1149.3131479791775 98.71285643226504 L 1149.241530166613 98.81569247743631 L 1149.1676411148544 98.91819963448859 L 1149.0914882127452 99.02036765279156 L 1149.0130790755125 99.12218631562857 L 1148.9324215440045 99.22364544121817 L 1148.849523683907 99.32473488373233 L 1148.764393784937 99.42544453431107 L 1148.6770403600137 99.52576432207324 L 1148.5874721444065 99.62568421512367 L 1148.4956980948623 99.72519422155631 L 1148.40172738871 99.82428439045346 L 1148.3055694229415 99.92294481288079 L 1148.2072338132732 100.02116562287829 L 1148.1067303931845 100.11893699844678 L 1148.0040692129332 100.2162491625302 L 1147.8992605385522 100.31309238399325 L 1147.7923148508214 100.40945697859446 L 1147.6832428442206 100.50533330995468 L 1147.5720554258592 100.60071179052068 L 1147.4587637143866 100.69558288252388 L 1147.3433790388797 100.78993709893413 L 1147.2259129377096 100.88376500440843 L 1147.1063771573888 100.97705721623441 L 1146.9847836513954 101.06980440526866 L 1146.861144578979 101.16199729686952 L 1146.7354723039437 101.25362667182469 L 1146.607779393412 101.34468336727302 L 1146.4780786165693 101.43515827762084 L 1146.3463829433842 101.52504235545253 L 1146.212705543315 101.61432661243519 L 1146.07705978399 101.70300212021755 L 1145.9394592298722 101.7910600113227 L 1145.7999176409023 101.87849148003492 L 1145.658448971123 101.9652877832802 L 1145.5150673672833 102.05144024150056 L 1145.369787167424 102.13694023952193 L 1145.2226228994443 102.22177922741581 L 1145.073589279648 102.30594872135407 L 1144.9227012112733 102.38944030445748 L 1144.769973783001 102.47224562763729 L 1144.6154222674465 102.5543564104302 L 1144.459062119633 102.63576444182635 L 1144.3009089754448 102.71646158109044 L 1144.1409786500647 102.79643975857579 L 1143.9792871363913 102.8756909765313 L 1143.815850603442 102.95420730990122 L 1143.6506853947335 103.03198090711763 L 1143.4838080266493 103.10900399088564 L 1143.3152351867868 103.18526885896105 L 1143.1449837322896 103.2607678849206 L 1142.9730706881614 103.33549351892461 L 1142.7995132455635 103.40943828847196 L 1142.624328760095 103.48259479914732 L 1142.447534750059 103.55495573536056 L 1142.269148894709 103.6265138610784 L 1142.0891890324817 103.69726202054787 L 1141.9076731592136 103.76719313901197 L 1141.7246194263407 103.83630022341715 L 1141.5400461390836 103.90457636311257 L 1141.3539717546175 103.97201473054113 L 1141.1664148802256 104.03860858192229 L 1140.977394271439 104.10435125792642 L 1140.786928830161 104.1692361843407 L 1140.5950376027772 104.23325687272656 L 1140.4017397782504 104.29640692106851 L 1140.207054686202 104.35868001441433 L 1140.0110017949787 104.4200699255066 L 1139.8136007097066 104.48057051540535 L 1139.6148711703295 104.54017573410202 L 1139.4148330496357 104.5988796211244 L 1139.2135063512708 104.65667630613272 L 1139.0109112077366 104.71356000950664 L 1138.807067878379 104.7695250429232 L 1138.6019967473605 104.82456580992574 L 1138.395718321624 104.87867680648341 L 1138.1882532288396 104.93185262154162 L 1137.9796222153439 104.98408793756322 L 1137.7698461440643 105.0353775310601 L 1137.5589459924333 105.08571627311568 L 1137.3469428502904 105.13509912989768 L 1137.1338579177727 105.1835211631616 L 1136.9197125031963 105.23097753074444 L 1136.704528020924 105.27746348704899 L 1136.488325989225 105.32297438351839 L 1136.2711280281217 105.36750566910086 L 1136.0529558572296 105.41105289070501 L 1135.8338312935841 105.45361169364494 L 1135.6137762494589 105.49517782207583 L 1135.3928127301747 105.53574711941947 L 1135.1709628318997 105.57531552877992 L 1134.9482487394387 105.61387909334925 L 1134.7246927240153 105.65143395680312 L 1134.5003171410447 105.68797636368647 L 1134.2751444278983 105.72350265978909 L 1134.04919710166 105.75800929251095 L 1133.8224977568739 105.79149281121755 L 1133.5950690632853 105.82394986758491 L 1133.3669337635747 105.85537721593445 L 1133.1381146710812 105.88577171355752 L 1132.908634667524 105.9151303210297 L 1132.678516700712 105.94345010251467 L 1132.4477837822499 105.97072822605791 L 1132.2164589852375 105.99696196386981 L 1131.9845654419616 106.02214869259844 L 1131.7521263415836 106.04628589359189 L 1131.5191649278195 106.0693711531502 L 1131.2857044966165 106.09140216276666 L 1131.0517683938235 106.11237671935864 L 1130.8173800128557 106.13229272548797 L 1130.5825627923557 106.15114818957065 L 1130.34734021385 106.16894122607596 L 1130.1117357994003 106.1856700557151 L 1129.8757731092521 106.20133300561903 L 1129.6394757394773 106.21592850950582 L 1129.4028673196162 106.22945510783724 L 1129.1659715103137 106.24191144796474 L 1128.9288120009533 106.25329628426466 L 1128.691412507288 106.2636084782629 L 1128.4537967690696 106.2728469987486 L 1128.215988547674 106.28101092187747 L 1127.978011623725 106.28809943126396 L 1127.7398897947166 106.29411181806304 L 1127.5016468726333 106.29904748104106 L 1127.263306681569 106.30290592663582 L 1127.024893055344 106.30568676900597 L 1126.7864298351224 106.30738973006962 L 1126.5479408670271 106.30801463953205 L 1126.3094499997567 106.30756143490284 L 1126.0709810821988 106.3060301615021 L 1125.8325579610466 106.30342097245587 L 1125.5942044784135 106.29973412868088 L 1125.3559444694492 106.29496999885845 L 1125.117801759956 106.28912905939758 L 1124.8798001640062 106.28221189438736 L 1124.6419634815613 106.27421919553852 L 1124.4043154960914 106.26515176211427 L 1124.166879972197 106.25501050085043 L 1123.9296806532323 106.24379642586464 L 1123.6927412589318 106.23151065855508 L 1123.4560854830374 106.21815442748823 L 1123.2197369909297 106.20372906827606 L 1122.9837194172608 106.1882360234425 L 1122.748056363591 106.17167684227908 L 1122.51277139603 106.15405318069014 L 1122.277888042878 106.13536680102716 L 1122.0434297922748 106.11561957191253 L 1121.8094200898497 106.09481346805269 L 1121.5758823363785 106.0729505700407 L 1121.3428398854414 106.05003306414814 L 1121.1103160410898 106.0260632421065 L 1120.878334055514 106.00104350087803 L 1120.6469171267192 105.97497634241597 L 1120.4160883962059 105.94786437341445 L 1120.1858709466542 105.9197103050478 L 1119.9562877996177 105.89051695269937 L 1119.7273619132195 105.86028723568009 L 1119.4991161798575 105.82902417693644 L 1119.2715734239148 105.79673090274827 L 1119.0447563994776 105.76341064241608 L 1118.818687788059 105.72906672793813 L 1118.593390196332 105.69370259367726 L 1118.368886153868 105.6573217760174 L 1118.1451981108842 105.61992791301003 L 1117.9223484359982 105.58152474401028 L 1117.7003594139921 105.54211610930304 L 1117.479253243583 105.50170594971894 L 1117.2590520352037 105.46029830624026 L 1117.0397778087913 105.41789731959686 L 1116.8214524915861 105.37450722985206 L 1116.604097915938 105.33013237597868 L 1116.3877358171228 105.28477719542511 L 1116.1723878311705 105.23844622367163 L 1115.9580754927001 105.1911440937768 L 1115.744820232767 105.14287553591419 L 1115.5326433767195 105.09364537689936 L 1115.3215661420663 105.0434585397072 L 1115.111609636355 104.99232004297959 L 1114.902794855061 104.9402350005236 L 1114.6951426794888 104.88720862080007 L 1114.4886738746825 104.83324620640276 L 1114.283409087351 104.77835315352817 L 1114.0793688438014 104.72253495143585 L 1113.8765735478885 104.66579718189945 L 1113.6750434789728 104.60814551864868 L 1113.474798789893 104.54958572680184 L 1113.2758595049515 104.49012366228926 L 1113.0782455179108 104.42976527126788 L 1112.8819765900048 104.36851658952648 L 1112.687072347963 104.30638374188221 L 1112.493552282047 104.24337294156805 L 1112.3014357441023 104.17949048961154 L 1112.1107419456225 104.11474277420461 L 1111.9214899558285 104.04913627006486 L 1111.7336986997616 103.98267753778805 L 1111.547386956391 103.91537322319199 L 1111.3625733567355 103.84723005665208 L 1111.1792763820015 103.77825485242818 L 1110.9975143617332 103.70845450798322 L 1110.8173054719816 103.63783600329349 L 1110.6386677334854 103.56640640015061 L 1110.4616190098695 103.49417284145538 L 1110.2861770058587 103.42114255050346 L 1110.1123592655072 103.3473228302631 L 1109.9401831704442 103.27272106264479 L 1109.769665938136 103.19734470776314 L 1109.6008246201634 103.1212013031908 L 1109.4336761005175 103.04429846320481 L 1109.268237093911 102.96664387802507 L 1109.104524144107 102.88824531304537 L 1108.9425536222636 102.8091106080569 L 1108.7823417252982 102.72924767646418 L 1108.6239044742672 102.64866450449387 L 1108.4672577127635 102.56736915039596 L 1108.3124171053325 102.48536974363815 L 1108.1593981359063 102.40267448409276 L 1108.008216106254 102.31929164121684 L 1107.8588861344526 102.2352295532252 L 1107.711423153375 102.15049662625658 L 1107.5658419091967 102.06510133353308 L 1107.4221569599201 101.97905221451278 L 1107.280382673921 101.89235787403591 L 1107.1405332285094 101.80502698146424 L 1107.0026226085138 101.71706826981428 L 1106.8666646048807 101.62849053488388 L 1106.7326728132978 101.53930263437272 L 1106.600660632832 101.44951348699652 L 1106.4706412645917 101.35913207159521 L 1106.3426277104052 101.26816742623502 L 1106.2166327715213 101.17662864730465 L 1106.0926690473289 101.08452488860574 L 1105.9707489340972 100.9918653604374 L 1105.8508846237357 100.89865932867522 L 1105.7330881025757 100.80491611384473 L 1105.6173711501713 100.71064509018925 L 1105.5037453381212 100.61585568473262 L 1105.3922220289116 100.5205573763364 L 1105.282812374781 100.424759694752 L 1105.1755273166034 100.32847221966773 L 1105.0703775827951 100.2317045797509 L 1104.967373688242 100.13446645168483 L 1104.8665259332479 100.03676755920131 L 1104.7678444025037 99.93861767210817 L 1104.6713389640809 99.84002660531232 L 1104.5770192684422 99.7410042178383 L 1104.4848947474793 99.64156041184232 L 1104.3949746135672 99.54170513162211 L 1104.307267858644 99.4414483626225 L 1104.2217832533129 99.34080013043682 L 1104.1385293459625 99.23977049980442 L 1104.0575144619147 99.13836957360418 L 1103.97874670259 99.03660749184422 L 1103.9022339446985 98.9344944306479 L 1103.8279838394528 98.83204060123627 L 1103.756003811801 98.72925624890688 L 1103.6863010596865 98.6261516520093 L 1103.6188825533259 98.52273712091731 L 1103.5537550345139 98.41902299699785 L 1103.490925015948 98.31501965157686 L 1103.430398780578 98.21073748490224 L 1103.3721823809765 98.10618692510373 L 1103.316281638735 98.0013784271502 L 1103.2627021438816 97.89632247180411 L 1103.211449254321 97.79102956457344 L 1103.162528095299 97.68551023466115 L 1103.1159435588913 97.57977503391233 L 1103.0717003035122 97.47383453575894 L 1103.029802753451 97.3676993341625 L 1102.990255098427 97.2613800425547 L 1102.9530612931735 97.15488729277617 L 1102.9182250570395 97.04823173401307 L 1102.88574987362 96.94142403173245 L 1102.8556389904059 96.8344748666155 L 1102.8278954184607 96.72739493348962 L 1102.8025219321182 96.6201949402589 L 1102.7795210687063 96.51288560683331 L 1102.758895128292 96.40547766405678 L 1102.7406461734518 96.29798185263407 L 1102.7247760290663 96.19040892205675 L 1102.7112862821368 96.08276962952824 L 1102.7001782816267 95.9750747388881 L 1102.6914531383266 95.86733501953563 L 1102.6851117247436 95.75956124535298 L 1102.6811546750139 95.65176419362778 L 1102.6795823848393 95.54395464397535" stroke-miterlimit="10" stroke-width="2.7769845610000004" stroke-dasharray=""/></g><g><g/><text fill="black" stroke="none" font-family="sans-serif" font-size="11pt" font-style="normal" font-weight="normal" text-decoration="normal" x="1116.346415691146" y="123.83569119881818" text-anchor="start" dominant-baseline="alphabetic" xml:space="preserve">DB</text></g></g><g><g><text fill="black" stroke="none" font-family="sans-serif" font-size="16pt" font-style="normal" font-weight="normal" text-decoration="normal" x="490.84788513183594" y="24.651306798181814" text-anchor="start" dominant-baseline="alphabetic" xml:space="preserve">INSERT PACKAGE</text></g><g><rect fill="white" stroke="none" x="133.43884588377605" y="161.4066587888182" width="115.71657051148438" height="21.23576429"/><text fill="black" stroke="none" font-family="sans-serif" font-size="11pt" font-style="normal" font-weight="normal" text-decoration="normal" x="135.88912637877604" y="176.10834175881817" text-anchor="start" dominant-baseline="alphabetic" xml:space="preserve">POST /packages</text></g><g><path fill="none" stroke="black" paint-order="fill stroke markers" d=" M 36.274252956152345 182.64242307881818 L 332.87069193921747 182.64242307881818" stroke-miterlimit="10" stroke-width="1.3612669416666667" stroke-dasharray=""/><g transform="translate(346.3200093228841,182.64242307881818) translate(-346.3200093228841,-182.64242307881818)"><path fill="black" stroke="none" paint-order="stroke fill markers" d=" M 332.70733990621744 175.83608837048484 L 346.3200093228841 182.64242307881818 L 332.70733990621744 189.44875778715152 Z"/></g></g><g><rect fill="white" stroke="none" x="372.17828968947265" y="207.1452280288182" width="229.0092493444922" height="21.23576429"/><text fill="black" stroke="none" font-family="sans-serif" font-size="11pt" font-style="normal" font-weight="normal" text-decoration="normal" x="374.62857018447266" y="221.84691099881817" text-anchor="start" dominant-baseline="alphabetic" xml:space="preserve">createPackage(Package package)</text></g><g><path fill="none" stroke="black" paint-order="fill stroke markers" d=" M 346.3200093228841 228.3809923188182 L 613.5965020168868 228.3809923188182" stroke-miterlimit="10" stroke-width="1.3612669416666667" stroke-dasharray=""/><g transform="translate(627.0458194005535,228.3809923188182) translate(-627.0458194005535,-228.3809923188182)"><path fill="black" stroke="none" paint-order="stroke fill markers" d=" M 613.4331499838868 221.57465761048485 L 627.0458194005535 228.3809923188182 L 613.4331499838868 235.18732702715153 Z"/></g></g><g><rect fill="white" stroke="none" x="646.3758099722202" y="252.88379726881823" width="162.18036140503906" height="21.23576429"/><text fill="black" stroke="none" font-family="sans-serif" font-size="11pt" font-style="normal" font-weight="normal" text-decoration="normal" x="648.8260904672202" y="267.5854802388182" text-anchor="start" dominant-baseline="alphabetic" xml:space="preserve">save(Package package)</text></g><g><path fill="none" stroke="black" paint-order="fill stroke markers" d=" M 627.0458194005535 274.1195615588182 L 814.4368445652592 274.1195615588182" stroke-miterlimit="10" stroke-width="1.3612669416666667" stroke-dasharray=""/><g transform="translate(827.8861619489259,274.1195615588182) translate(-827.8861619489259,-274.1195615588182)"><path fill="black" stroke="none" paint-order="stroke fill markers" d=" M 814.2734925322592 267.31322685048485 L 827.8861619489259 274.1195615588182 L 814.2734925322592 280.92589626715153 Z"/></g></g><g><rect fill="white" stroke="none" x="875.0508006529167" y="298.6223665088182" width="204.31350959839844" height="21.23576429"/><text fill="black" stroke="none" font-family="sans-serif" font-size="11pt" font-style="normal" font-weight="normal" text-decoration="normal" x="877.5010811479167" y="313.32404947881815" text-anchor="start" dominant-baseline="alphabetic" xml:space="preserve">Validate and save the package</text></g><g><path fill="none" stroke="black" paint-order="fill stroke markers" d=" M 827.8861619489259 319.8581307988182 L 1113.0796315716393 319.8581307988182" stroke-miterlimit="10" stroke-width="1.3612669416666667" stroke-dasharray=""/><g transform="translate(1126.528948955306,319.8581307988182) translate(-1126.528948955306,-319.8581307988182)"><path fill="black" stroke="none" paint-order="stroke fill markers" d=" M 1112.9162795386394 313.05179609048486 L 1126.528948955306 319.8581307988182 L 1112.9162795386394 326.66446550715153 Z"/></g></g><g><rect fill="white" stroke="none" x="847.2161525205925" y="344.3609357488182" width="259.98280586304685" height="21.23576429"/><text fill="black" stroke="none" font-family="sans-serif" font-size="11pt" font-style="normal" font-weight="normal" text-decoration="normal" x="849.6664330155925" y="359.06261871881816" text-anchor="start" dominant-baseline="alphabetic" xml:space="preserve">Return package data with generated ID</text></g><g><path fill="none" stroke="black" paint-order="fill stroke markers" d=" M 1126.528948955306 365.5967000388182 L 841.3354793325925 365.5967000388182" stroke-miterlimit="10" stroke-width="1.3612669416666667" stroke-dasharray="6.53408132"/><g transform="translate(827.8861619489259,365.5967000388182) translate(-827.8861619489259,-365.5967000388182)"><path fill="black" stroke="none" paint-order="stroke fill markers" d=" M 841.4988313655925 358.79036533048486 L 827.8861619489259 365.5967000388182 L 841.4988313655925 372.40303474715154 Z"/></g></g><g><rect fill="white" stroke="none" x="647.1918347524936" y="390.0995049888182" width="160.5483118444922" height="21.23576429"/><text fill="black" stroke="none" font-family="sans-serif" font-size="11pt" font-style="normal" font-weight="normal" text-decoration="normal" x="649.6421152474936" y="404.80118795881816" text-anchor="start" dominant-baseline="alphabetic" xml:space="preserve">Returns Package object</text></g><g><path fill="none" stroke="black" paint-order="fill stroke markers" d=" M 827.8861619489259 411.3352692788182 L 640.4951367842201 411.3352692788182" stroke-miterlimit="10" stroke-width="1.3612669416666667" stroke-dasharray="6.53408132"/><g transform="translate(627.0458194005535,411.3352692788182) translate(-627.0458194005535,-411.3352692788182)"><path fill="black" stroke="none" paint-order="stroke fill markers" d=" M 640.6584888172201 404.52893457048486 L 627.0458194005535 411.3352692788182 L 640.6584888172201 418.14160398715154 Z"/></g></g><g><rect fill="white" stroke="none" x="365.6499998945508" y="435.8380742288182" width="242.06582893433594" height="21.23576429"/><text fill="black" stroke="none" font-family="sans-serif" font-size="11pt" font-style="normal" font-weight="normal" text-decoration="normal" x="368.1002803895508" y="450.53975719881817" text-anchor="start" dominant-baseline="alphabetic" xml:space="preserve">Sends package data back to the API</text></g><g><path fill="none" stroke="black" paint-order="fill stroke markers" d=" M 627.0458194005535 457.0738385188182 L 359.76932670655077 457.0738385188182" stroke-miterlimit="10" stroke-width="1.3612669416666667" stroke-dasharray="6.53408132"/><g transform="translate(346.3200093228841,457.0738385188182) translate(-346.3200093228841,-457.0738385188182)"><path fill="black" stroke="none" paint-order="stroke fill markers" d=" M 359.9326787395508 450.26750381048487 L 346.3200093228841 457.0738385188182 L 359.9326787395508 463.88017322715154 Z"/></g></g><g><rect fill="white" stroke="none" x="55.60424352781901" y="481.5766434688182" width="271.3857904821875" height="21.23576429"/><text fill="black" stroke="none" font-family="sans-serif" font-size="11pt" font-style="normal" font-weight="normal" text-decoration="normal" x="58.05452402281901" y="496.27832643881817" text-anchor="start" dominant-baseline="alphabetic" xml:space="preserve">Return the created Package as response</text></g><g><path fill="none" stroke="black" paint-order="fill stroke markers" d=" M 346.3200093228841 502.8124077588182 L 49.72357033981901 502.8124077588182" stroke-miterlimit="10" stroke-width="1.3612669416666667" stroke-dasharray="6.53408132"/><g transform="translate(36.274252956152345,502.8124077588182) translate(-36.274252956152345,-502.8124077588182)"><path fill="black" stroke="none" paint-order="stroke fill markers" d=" M 49.886922372819015 496.0060730504849 L 36.274252956152345 502.8124077588182 L 49.886922372819015 509.61874246715155 Z"/></g></g></g><g/><g/><g/><g/><g/></g></svg>